<svg xmlns:xlink="http://www.w3.org/1999/xlink" version="1.1" class="highcharts-root" style="font-family:&quot;lucida grande&quot;, &quot;lucida sans unicode&quot;, arial, helvetica, sans-serif;font-size:12px;" xmlns="http://www.w3.org/2000/svg" width="600" height="400"><desc>Created with Highcharts 5.0.6</desc><defs><clipPath id="highcharts-ql9vczr-132"><rect x="0" y="0" width="262" height="487" fill="none"></rect></clipPath></defs><rect fill="#ffffff" class="highcharts-background" x="0" y="0" width="600" height="400" rx="0" ry="0"></rect><rect fill="none" class="highcharts-plot-background" x="103" y="46" width="487" height="262"></rect><g class="highcharts-grid highcharts-xaxis-grid "><path fill="none" class="highcharts-grid-line" d="M 103 90.5 L 590 90.5" opacity="1"></path><path fill="none" class="highcharts-grid-line" d="M 103 133.5 L 590 133.5" opacity="1"></path><path fill="none" class="highcharts-grid-line" d="M 103 177.5 L 590 177.5" opacity="1"></path><path fill="none" class="highcharts-grid-line" d="M 103 221.5 L 590 221.5" opacity="1"></path><path fill="none" class="highcharts-grid-line" d="M 103 264.5 L 590 264.5" opacity="1"></path><path fill="none" class="highcharts-grid-line" d="M 103 308.5 L 590 308.5" opacity="1"></path><path fill="none" class="highcharts-grid-line" d="M 103 46.5 L 590 46.5" opacity="1"></path></g><g class="highcharts-grid highcharts-yaxis-grid "><path fill="none" stroke="#e6e6e6" stroke-width="1" class="highcharts-grid-line" d="M 102.5 46 L 102.5 308" opacity="1"></path><path fill="none" stroke="#e6e6e6" stroke-width="1" class="highcharts-grid-line" d="M 183.5 46 L 183.5 308" opacity="1"></path><path fill="none" stroke="#e6e6e6" stroke-width="1" class="highcharts-grid-line" d="M 264.5 46 L 264.5 308" opacity="1"></path><path fill="none" stroke="#e6e6e6" stroke-width="1" class="highcharts-grid-line" d="M 346.5 46 L 346.5 308" opacity="1"></path><path fill="none" stroke="#e6e6e6" stroke-width="1" class="highcharts-grid-line" d="M 427.5 46 L 427.5 308" opacity="1"></path><path fill="none" stroke="#e6e6e6" stroke-width="1" class="highcharts-grid-line" d="M 508.5 46 L 508.5 308" opacity="1"></path><path fill="none" stroke="#e6e6e6" stroke-width="1" class="highcharts-grid-line" d="M 590.5 46 L 590.5 308" opacity="1"></path></g><rect fill="none" class="highcharts-plot-border" x="103" y="46" width="487" height="262"></rect><g class="highcharts-axis highcharts-xaxis "><path fill="none" class="highcharts-tick" stroke="#ccd6eb" stroke-width="1" d="M 103 90.5 L 93 90.5" opacity="1"></path><path fill="none" class="highcharts-tick" stroke="#ccd6eb" stroke-width="1" d="M 103 133.5 L 93 133.5" opacity="1"></path><path fill="none" class="highcharts-tick" stroke="#ccd6eb" stroke-width="1" d="M 103 177.5 L 93 177.5" opacity="1"></path><path fill="none" class="highcharts-tick" stroke="#ccd6eb" stroke-width="1" d="M 103 221.5 L 93 221.5" opacity="1"></path><path fill="none" class="highcharts-tick" stroke="#ccd6eb" stroke-width="1" d="M 103 264.5 L 93 264.5" opacity="1"></path><path fill="none" class="highcharts-tick" stroke="#ccd6eb" stroke-width="1" d="M 103 308.5 L 93 308.5" opacity="1"></path><path fill="none" class="highcharts-tick" stroke="#ccd6eb" stroke-width="1" d="M 103 45.5 L 93 45.5" opacity="1"></path><path fill="none" class="highcharts-axis-line" stroke="#ccd6eb" stroke-width="1" d="M 102.5 46 L 102.5 308"></path></g><g class="highcharts-axis highcharts-yaxis "><text x="346.5" text-anchor="middle" transform="translate(0,0)" class="highcharts-axis-title" style="color:#666666;fill:#666666;" y="346"><tspan>Number of reads</tspan></text><path fill="none" class="highcharts-axis-line" d="M 103 308 L 590 308"></path></g><g class="highcharts-series-group"><g class="highcharts-series highcharts-series-0 highcharts-bar-series highcharts-color-0 " transform="translate(590,308) rotate(90) scale(-1,1) scale(1 1)" width="487" height="262" clip-path="url(#highcharts-ql9vczr-132)"><rect x="223" y="326" width="34" height="162" fill="#7cb5ec" class="highcharts-point highcharts-color-0"></rect><rect x="180" y="371" width="34" height="117" fill="#7cb5ec" class="highcharts-point highcharts-color-0"></rect><rect x="136" y="309" width="34" height="179" fill="#7cb5ec" class="highcharts-point highcharts-color-0"></rect><rect x="92" y="335" width="34" height="153" fill="#7cb5ec" class="highcharts-point highcharts-color-0"></rect><rect x="49" y="338" width="34" height="150" fill="#7cb5ec" class="highcharts-point highcharts-color-0"></rect><rect x="5" y="356" width="34" height="132" fill="#7cb5ec" class="highcharts-point highcharts-color-0"></rect></g><g class="highcharts-markers highcharts-series-0 highcharts-bar-series highcharts-color-0 " transform="translate(590,308) rotate(90) scale(-1,1) scale(1 1)" width="487" height="262" clip-path="none"></g><g class="highcharts-series highcharts-series-1 highcharts-bar-series highcharts-color-1 " transform="translate(590,308) rotate(90) scale(-1,1) scale(1 1)" width="487" height="262" clip-path="url(#highcharts-ql9vczr-132)"><rect x="223" y="145" width="34" height="181" fill="#434348" class="highcharts-point highcharts-color-1"></rect><rect x="180" y="241" width="34" height="130" fill="#434348" class="highcharts-point highcharts-color-1"></rect><rect x="136" y="94" width="34" height="215" fill="#434348" class="highcharts-point highcharts-color-1"></rect><rect x="92" y="148" width="34" height="187" fill="#434348" class="highcharts-point highcharts-color-1"></rect><rect x="49" y="158" width="34" height="180" fill="#434348" class="highcharts-point highcharts-color-1"></rect><rect x="5" y="157" width="34" height="199" fill="#434348" class="highcharts-point highcharts-color-1"></rect></g><g class="highcharts-markers highcharts-series-1 highcharts-bar-series highcharts-color-1 " transform="translate(590,308) rotate(90) scale(-1,1) scale(1 1)" width="487" height="262" clip-path="none"></g></g><text x="300" text-anchor="middle" class="highcharts-title" style="color:#333333;font-size:18px;fill:#333333;width:536px;" y="24"><tspan>FastQC: Sequence Counts</tspan></text><g class="highcharts-legend" transform="translate(174,360)"><rect fill="none" class="highcharts-legend-box" rx="0" ry="0" x="0" y="0" width="251" height="25" visibility="visible"></rect><g><g><g class="highcharts-legend-item highcharts-bar-series highcharts-color-0 highcharts-series-0" transform="translate(8,3)"><text x="21" style="color:#333333;font-size:12px;font-weight:bold;cursor:pointer;fill:#333333;" text-anchor="start" y="15"><tspan>Unique Reads</tspan></text><rect x="2" y="4" width="12" height="12" fill="#7cb5ec" rx="6" ry="6" class="highcharts-point"></rect></g><g class="highcharts-legend-item highcharts-bar-series highcharts-color-1 highcharts-series-1" transform="translate(129,3)"><text x="21" y="15" style="color:#333333;font-size:12px;font-weight:bold;cursor:pointer;fill:#333333;" text-anchor="start"><tspan>Duplicate Reads</tspan></text><rect x="2" y="4" width="12" height="12" fill="#434348" rx="6" ry="6" class="highcharts-point"></rect></g></g></g></g><g class="highcharts-axis-labels highcharts-xaxis-labels "><text x="88" style="color:#666666;cursor:default;font-size:11px;fill:#666666;width:188px;text-overflow:clip;" text-anchor="end" transform="translate(0,0)" y="72" opacity="1"><tspan>SRR3414629_1</tspan></text><text x="88" style="color:#666666;cursor:default;font-size:11px;fill:#666666;width:188px;text-overflow:clip;" text-anchor="end" transform="translate(0,0)" y="116" opacity="1"><tspan>SRR3414630_1</tspan></text><text x="88" style="color:#666666;cursor:default;font-size:11px;fill:#666666;width:188px;text-overflow:clip;" text-anchor="end" transform="translate(0,0)" y="160" opacity="1"><tspan>SRR3414631_1</tspan></text><text x="88" style="color:#666666;cursor:default;font-size:11px;fill:#666666;width:188px;text-overflow:clip;" text-anchor="end" transform="translate(0,0)" y="203" opacity="1"><tspan>SRR3414635_1</tspan></text><text x="88" style="color:#666666;cursor:default;font-size:11px;fill:#666666;width:188px;text-overflow:clip;" text-anchor="end" transform="translate(0,0)" y="247" opacity="1"><tspan>SRR3414636_1</tspan></text><text x="88" style="color:#666666;cursor:default;font-size:11px;fill:#666666;width:188px;text-overflow:clip;" text-anchor="end" transform="translate(0,0)" y="291" opacity="1"><tspan>SRR3414637_1</tspan></text></g><g class="highcharts-axis-labels highcharts-yaxis-labels "><text x="103" style="color:#666666;cursor:default;font-size:11px;fill:#666666;width:71px;text-overflow:clip;" text-anchor="middle" transform="translate(0,0)" y="327" opacity="1"><tspan>0</tspan></text><text x="184.16666666666666" style="color:#666666;cursor:default;font-size:11px;fill:#666666;width:71px;text-overflow:clip;" text-anchor="middle" transform="translate(0,0)" y="327" opacity="1"><tspan>5M</tspan></text><text x="265.3333333333333" style="color:#666666;cursor:default;font-size:11px;fill:#666666;width:71px;text-overflow:clip;" text-anchor="middle" transform="translate(0,0)" y="327" opacity="1"><tspan>10M</tspan></text><text x="346.5" style="color:#666666;cursor:default;font-size:11px;fill:#666666;width:71px;text-overflow:clip;" text-anchor="middle" transform="translate(0,0)" y="327" opacity="1"><tspan>15M</tspan></text><text x="427.66666666666663" style="color:#666666;cursor:default;font-size:11px;fill:#666666;width:71px;text-overflow:clip;" text-anchor="middle" transform="translate(0,0)" y="327" opacity="1"><tspan>20M</tspan></text><text x="508.8333333333333" style="color:#666666;cursor:default;font-size:11px;fill:#666666;width:71px;text-overflow:clip;" text-anchor="middle" transform="translate(0,0)" y="327" opacity="1"><tspan>25M</tspan></text><text x="579.3000001907349" style="color:#666666;cursor:default;font-size:11px;fill:#666666;width:71px;text-overflow:clip;" text-anchor="middle" transform="translate(0,0)" y="327" opacity="1"><tspan>30M</tspan></text></g><text x="590" class="highcharts-credits" text-anchor="end" style="cursor:pointer;color:#999999;font-size:9px;fill:#999999;" y="395"><tspan>Created with MultiQC</tspan></text></svg>