<svg xmlns:xlink="http://www.w3.org/1999/xlink" version="1.1" class="highcharts-root" style="font-family:&quot;lucida grande&quot;, &quot;lucida sans unicode&quot;, arial, helvetica, sans-serif;font-size:12px;" xmlns="http://www.w3.org/2000/svg" width="600" height="400"><desc>Created with Highcharts 5.0.6</desc><defs><clipPath id="highcharts-ql9vczr-168"><rect x="0" y="0" width="535" height="299" fill="none"></rect></clipPath></defs><rect fill="#ffffff" class="highcharts-background" x="0" y="0" width="600" height="400" rx="0" ry="0"></rect><rect fill="none" class="highcharts-plot-background" x="55" y="46" width="535" height="299"></rect><g class="highcharts-plot-bands-0"><path fill="#e6c3c3" class="highcharts-plot-band " d="M 55 46.5 L 590 46.5 590 46.5 55 46.5 z"></path><path fill="#e6dcc3" class="highcharts-plot-band " d="M 55 96.5 L 590 96.5 590 46.5 55 46.5 z"></path><path fill="#c3e6c3" class="highcharts-plot-band " d="M 55 345.5 L 590 345.5 590 96.5 55 96.5 z"></path></g><g class="highcharts-grid highcharts-xaxis-grid "><path fill="none" class="highcharts-grid-line" d="M 54.5 46 L 54.5 345" opacity="1"></path><path fill="none" class="highcharts-grid-line" d="M 135.5 46 L 135.5 345" opacity="1"></path><path fill="none" class="highcharts-grid-line" d="M 217.5 46 L 217.5 345" opacity="1"></path><path fill="none" class="highcharts-grid-line" d="M 298.5 46 L 298.5 345" opacity="1"></path><path fill="none" class="highcharts-grid-line" d="M 380.5 46 L 380.5 345" opacity="1"></path><path fill="none" class="highcharts-grid-line" d="M 461.5 46 L 461.5 345" opacity="1"></path><path fill="none" class="highcharts-grid-line" d="M 543.5 46 L 543.5 345" opacity="1"></path></g><g class="highcharts-grid highcharts-yaxis-grid "><path fill="none" stroke="#e6e6e6" stroke-width="1" class="highcharts-grid-line" d="M 55 345.5 L 590 345.5" opacity="1"></path><path fill="none" stroke="#e6e6e6" stroke-width="1" class="highcharts-grid-line" d="M 55 295.5 L 590 295.5" opacity="1"></path><path fill="none" stroke="#e6e6e6" stroke-width="1" class="highcharts-grid-line" d="M 55 245.5 L 590 245.5" opacity="1"></path><path fill="none" stroke="#e6e6e6" stroke-width="1" class="highcharts-grid-line" d="M 55 196.5 L 590 196.5" opacity="1"></path><path fill="none" stroke="#e6e6e6" stroke-width="1" class="highcharts-grid-line" d="M 55 146.5 L 590 146.5" opacity="1"></path><path fill="none" stroke="#e6e6e6" stroke-width="1" class="highcharts-grid-line" d="M 55 96.5 L 590 96.5" opacity="1"></path><path fill="none" stroke="#e6e6e6" stroke-width="1" class="highcharts-grid-line" d="M 55 45.5 L 590 45.5" opacity="1"></path></g><rect fill="none" class="highcharts-plot-border" x="55" y="46" width="535" height="299"></rect><g class="highcharts-axis highcharts-xaxis "><path fill="none" class="highcharts-tick" stroke="#ccd6eb" stroke-width="1" d="M 54.5 345 L 54.5 355" opacity="1"></path><path fill="none" class="highcharts-tick" stroke="#ccd6eb" stroke-width="1" d="M 135.5 345 L 135.5 355" opacity="1"></path><path fill="none" class="highcharts-tick" stroke="#ccd6eb" stroke-width="1" d="M 217.5 345 L 217.5 355" opacity="1"></path><path fill="none" class="highcharts-tick" stroke="#ccd6eb" stroke-width="1" d="M 298.5 345 L 298.5 355" opacity="1"></path><path fill="none" class="highcharts-tick" stroke="#ccd6eb" stroke-width="1" d="M 380.5 345 L 380.5 355" opacity="1"></path><path fill="none" class="highcharts-tick" stroke="#ccd6eb" stroke-width="1" d="M 461.5 345 L 461.5 355" opacity="1"></path><path fill="none" class="highcharts-tick" stroke="#ccd6eb" stroke-width="1" d="M 543.5 345 L 543.5 355" opacity="1"></path><text x="322.5" text-anchor="middle" transform="translate(0,0)" class="highcharts-axis-title" style="color:#666666;fill:#666666;" y="383"><tspan>Position in Read (bp)</tspan></text><path fill="none" class="highcharts-axis-line" stroke="#ccd6eb" stroke-width="1" d="M 55 345.5 L 590 345.5"></path></g><g class="highcharts-axis highcharts-yaxis "><text x="23.883333206176758" text-anchor="middle" transform="translate(0,0) rotate(270 23.883333206176758 195.5)" class="highcharts-axis-title" style="color:#666666;fill:#666666;" y="195.5"><tspan>Percentage N-Count</tspan></text><path fill="none" class="highcharts-axis-line" d="M 55 46 L 55 345"></path></g><g class="highcharts-series-group"><g class="highcharts-series highcharts-series-0 highcharts-line-series highcharts-color-undefined " transform="translate(55,46) scale(1 1)" width="299" height="535" clip-path="url(#highcharts-ql9vczr-168)"><path fill="none" d="M 8.1492764661081 298.0286483993632 L 16.298552932216 298.99858334720375 L 24.447829398324 299 L 32.597105864433 298.9690697472816 L 40.746382330541 298.6647255048847 L 48.895658796649 298.9652920064916 L 57.044935262757 298.98276405764545 L 65.194211728865 298.9005981954623 L 73.343488194973 299 L 81.492764661081 299 L 89.64204112719 299 L 97.791317593298 299 L 105.94059405941 299 L 114.08987052551 298.9988194560031 L 122.23914699162 298.99976389120064 L 130.38842345773 299 L 138.53769992384 299 L 146.68697638995 298.9990555648025 L 154.83625285605 299 L 162.98552932216 299 L 171.13480578827 299 L 179.28408225438 298.9938611712162 L 187.43335872049 298.97355581446976 L 195.5826351866 298.9813474048492 L 203.7319116527 298.96883363848224 L 211.88118811881 298.87344568353393 L 220.03046458492 298.9371950593657 L 228.17974105103 298.904139827453 L 236.32901751714 298.9308201217826 L 244.47829398324 298.82409894446414 L 252.62757044935 298.9848890368399 L 260.77684691546 298.9978750208056 L 268.92612338157 298.9938611712162 L 277.07539984768 298.95962539530655 L 285.22467631379 298.69990571599186 L 293.37395277989 298.66448939608534 L 301.523229246 298.97001418247913 L 309.67250571211 298.92302853140313 L 317.82178217822 298.89091773468783 L 325.97105864433 298.940500582557 L 334.12033511043 298.8878483202959 L 342.26961157654 298.67676705365295 L 350.41888804265 298.65622558810713 L 358.56816450876 298.92184798740624 L 366.71744097487 298.9239729666006 L 374.86671744097 298.7844326661688 L 383.01599390708 298.69943349839315 L 391.16527037319 298.50251875971276 L 399.3145468393 298.1995911701121 L 407.46382330541 298.05391204089653 L 415.61309977152 298.32236774578814 L 423.76237623762 298.46403302541427 L 431.91165270373 298.4231862031221 L 440.06092916984 296.76523021389704 L 448.21020563595 297.06036621311824 L 456.35948210206 297.8317336606828 L 464.50875856816 297.7252485921638 L 472.65803503427 297.26625308617497 L 480.80731150038 297.0672133683002 L 488.95658796649 297.85038625583354 L 497.1058644326 297.605777539679 L 505.25514089871 297.4086266921993 L 513.40441736481 297.60554143087967 L 521.55369383092 298.0954671895868 L 529.70297029703 298.36415900327785" class="highcharts-graph" stroke="#5cb85c" stroke-width="2" stroke-linejoin="round" stroke-linecap="round"></path></g><g class="highcharts-markers highcharts-series-0 highcharts-line-series highcharts-color-undefined " transform="translate(55,46) scale(1 1)" width="299" height="535" clip-path="none"></g><g class="highcharts-series highcharts-series-1 highcharts-line-series highcharts-color-undefined " transform="translate(55,46) scale(1 1)" width="299" height="535" clip-path="url(#highcharts-ql9vczr-168)"><path fill="none" d="M 8.1492764661081 298.00985222568886 L 16.298552932216 298.9993462213441 L 24.447829398324 299 L 32.597105864433 298.97319507510946 L 40.746382330541 298.6574199843255 L 48.895658796649 298.9669841778787 L 57.044935262757 298.9836555336033 L 65.194211728865 298.9038945375875 L 73.343488194973 299 L 81.492764661081 299 L 89.64204112719 299 L 97.791317593298 299 L 105.94059405941 299 L 114.08987052551 298.9993462213441 L 122.23914699162 298.99967311067206 L 130.38842345773 299 L 138.53769992384 299 L 146.68697638995 298.99967311067206 L 154.83625285605 299 L 162.98552932216 299 L 171.13480578827 299 L 179.28408225438 298.99444288142513 L 187.43335872049 298.9777715257005 L 195.5826351866 298.98790509486645 L 203.7319116527 298.96861862451834 L 211.88118811881 298.8721862727779 L 220.03046458492 298.93168013046187 L 228.17974105103 298.91043232414614 L 236.32901751714 298.93462213441325 L 244.47829398324 298.8280562135069 L 252.62757044935 298.9836555336033 L 260.77684691546 298.9983655533603 L 268.92612338157 298.9911739881458 L 277.07539984768 298.9552161620731 L 285.22467631379 298.71789450999324 L 293.37395277989 298.67801401198534 L 301.523229246 298.9640421739273 L 309.67250571211 298.92318100793557 L 317.82178217822 298.89474163640534 L 325.97105864433 298.93658347038087 L 334.12033511043 298.8895114071584 L 342.26961157654 298.689455138463 L 350.41888804265 298.6691880001311 L 358.56816450876 298.9169701107048 L 366.71744097487 298.92318100793557 L 374.86671744097 298.7862143795314 L 383.01599390708 298.70351137956413 L 391.16527037319 298.5204533559213 L 399.3145468393 298.20860093707256 L 407.46382330541 298.0422142691543 L 415.61309977152 298.33216510303146 L 423.76237623762 298.4750157393385 L 431.91165270373 298.452787265039 L 440.06092916984 296.7627694396218 L 448.21020563595 297.03866403239783 L 456.35948210206 297.8372546605399 L 464.50875856816 297.7234971744189 L 472.65803503427 297.23577829714185 L 480.80731150038 297.00957088221173 L 488.95658796649 297.82940931666946 L 497.1058644326 297.56659029701075 L 505.25514089871 297.37405248285785 L 513.40441736481 297.5989523404762 L 521.55369383092 298.08863255372086 L 529.70297029703 298.3668153717924" class="highcharts-graph" stroke="#5cb85c" stroke-width="2" stroke-linejoin="round" stroke-linecap="round"></path></g><g class="highcharts-markers highcharts-series-1 highcharts-line-series highcharts-color-undefined " transform="translate(55,46) scale(1 1)" width="299" height="535" clip-path="none"></g><g class="highcharts-series highcharts-series-2 highcharts-line-series highcharts-color-undefined " transform="translate(55,46) scale(1 1)" width="299" height="535" clip-path="url(#highcharts-ql9vczr-168)"><path fill="none" d="M 8.1492764661081 298.07832028251255 L 16.298552932216 298.9991778057828 L 24.447829398324 299 L 32.597105864433 298.96772887697466 L 40.746382330541 298.6686557304661 L 48.895658796649 298.96629003709455 L 57.044935262757 298.9831450185473 L 65.194211728865 298.9091475389988 L 73.343488194973 299 L 81.492764661081 299 L 89.64204112719 299 L 97.791317593298 299 L 105.94059405941 299 L 114.08987052551 298.9983556115656 L 122.23914699162 298.9995889028914 L 130.38842345773 299 L 138.53769992384 299 L 146.68697638995 299 L 154.83625285605 299 L 162.98552932216 299 L 171.13480578827 299 L 179.28408225438 298.99239470349085 L 187.43335872049 298.9732786879408 L 195.5826351866 298.9847894069817 L 203.7319116527 298.9747175278209 L 211.88118811881 298.8791374500708 L 220.03046458492 298.93175787997194 L 228.17974105103 298.9124363158676 L 236.32901751714 298.93134678286333 L 244.47829398324 298.819939466432 L 252.62757044935 298.9817061786672 L 260.77684691546 298.9969167716855 L 268.92612338157 298.99342244626234 L 277.07539984768 298.96238461456284 L 285.22467631379 298.72024841759577 L 293.37395277989 298.6898272315592 L 301.523229246 298.9710176538435 L 309.67250571211 298.93216897708055 L 317.82178217822 298.8998978540552 L 325.97105864433 298.94655737588164 L 334.12033511043 298.9038032765869 L 342.26961157654 298.70195459626296 L 350.41888804265 298.68530516336455 L 358.56816450876 298.929085748766 L 366.71744097487 298.9354577539494 L 374.86671744097 298.8102786843798 L 383.01599390708 298.7183984806071 L 391.16527037319 298.53772130137617 L 399.3145468393 298.2357704751074 L 407.46382330541 298.08243125359854 L 415.61309977152 298.36177173889416 L 423.76237623762 298.4996948188304 L 431.91165270373 298.4581740108615 L 440.06092916984 296.7948751094546 L 448.21020563595 297.09333161030025 L 456.35948210206 297.8633164947133 L 464.50875856816 297.7660920285287 L 472.65803503427 297.2966191305043 L 480.80731150038 297.1021701981352 L 488.95658796649 297.88921561255523 L 497.1058644326 297.6326910167871 L 505.25514089871 297.46229126527123 L 513.40441736481 297.665373236921 L 521.55369383092 298.12025218759004 L 529.70297029703 298.38890414806195" class="highcharts-graph" stroke="#5cb85c" stroke-width="2" stroke-linejoin="round" stroke-linecap="round"></path></g><g class="highcharts-markers highcharts-series-2 highcharts-line-series highcharts-color-undefined " transform="translate(55,46) scale(1 1)" width="299" height="535" clip-path="none"></g><g class="highcharts-series highcharts-series-3 highcharts-line-series highcharts-color-undefined " transform="translate(55,46) scale(1 1)" width="299" height="535" clip-path="url(#highcharts-ql9vczr-168)"><path fill="none" d="M 8.1492764661081 298.05476708272744 L 16.298552932216 298.997622055554 L 24.447829398324 299 L 32.597105864433 298.9688489277578 L 40.746382330541 298.65662482200213 L 48.895658796649 298.96433083331044 L 57.044935262757 298.98573233332417 L 65.194211728865 298.9003641277139 L 73.343488194973 299 L 81.492764661081 299 L 89.64204112719 299 L 97.791317593298 299 L 105.94059405941 299 L 114.08987052551 298.9990488222216 L 122.23914699162 298.99881102777704 L 130.38842345773 299 L 138.53769992384 299 L 146.68697638995 298.9997622055554 L 154.83625285605 299 L 162.98552932216 299 L 171.13480578827 299 L 179.28408225438 298.99381734444046 L 187.43335872049 298.9721780499822 L 195.5826351866 298.98168982776605 L 203.7319116527 298.9721780499822 L 211.88118811881 298.8730177665853 L 220.03046458492 298.9284238721763 L 228.17974105103 298.91177826105456 L 236.32901751714 298.9322285832899 L 244.47829398324 298.8264100554443 L 252.62757044935 298.9788362944309 L 260.77684691546 298.9959574944418 L 268.92612338157 298.99571969999727 L 277.07539984768 298.9600505333077 L 285.22467631379 298.7213049109325 L 293.37395277989 298.6863491275767 L 301.523229246 298.9700378999808 L 309.67250571211 298.92533254439655 L 317.82178217822 298.89204132215303 L 325.97105864433 298.9412647721846 L 334.12033511043 298.9008397166031 L 342.26961157654 298.69419634424844 L 350.41888804265 298.67873970534964 L 358.56816450876 298.9177231221695 L 366.71744097487 298.9231923943952 L 374.86671744097 298.79597236653586 L 383.01599390708 298.7186891720419 L 391.16527037319 298.5217953719157 L 399.3145468393 298.2433380772927 L 407.46382330541 298.0935275771967 L 415.61309977152 298.3662778051493 L 423.76237623762 298.49872931078977 L 431.91165270373 298.4592554329867 L 440.06092916984 296.8325036374995 L 448.21020563595 297.0955042932236 L 456.35948210206 297.86239137704854 L 464.50875856816 297.77298066588014 L 472.65803503427 297.2959650100188 L 480.80731150038 297.1095341654548 L 488.95658796649 297.88355508261765 L 497.1058644326 297.61746309911376 L 505.25514089871 297.44458653789184 L 513.40441736481 297.65384564913705 L 521.55369383092 298.1184959938794 L 529.70297029703 298.39338637183334" class="highcharts-graph" stroke="#5cb85c" stroke-width="2" stroke-linejoin="round" stroke-linecap="round"></path></g><g class="highcharts-markers highcharts-series-3 highcharts-line-series highcharts-color-undefined " transform="translate(55,46) scale(1 1)" width="299" height="535" clip-path="none"></g><g class="highcharts-series highcharts-series-4 highcharts-line-series highcharts-color-undefined " transform="translate(55,46) scale(1 1)" width="299" height="535" clip-path="url(#highcharts-ql9vczr-168)"><path fill="none" d="M 8.1492764661081 298.0760765163122 L 16.298552932216 298.9995092039927 L 24.447829398324 299 L 32.597105864433 298.9695706475492 L 40.746382330541 298.650553242823 L 48.895658796649 298.9668712695092 L 57.044935262757 298.98355833375643 L 65.194211728865 298.9123929127021 L 73.343488194973 299 L 81.492764661081 299 L 89.64204112719 299 L 97.791317593298 299 L 105.94059405941 299 L 114.08987052551 298.99975460199636 L 122.23914699162 299 L 130.38842345773 299 L 138.53769992384 299 L 146.68697638995 298.9992638059891 L 154.83625285605 299 L 162.98552932216 299 L 171.13480578827 299 L 179.28408225438 298.99337425390183 L 187.43335872049 298.9722700255892 L 195.5826351866 298.9796319656983 L 203.7319116527 298.97153383157826 L 211.88118811881 298.8738654261313 L 220.03046458492 298.92834378293844 L 228.17974105103 298.91730087277483 L 236.32901751714 298.9342333350257 L 244.47829398324 298.8284667954588 L 252.62757044935 298.98257674174187 L 260.77684691546 298.9965644279491 L 268.92612338157 298.9921472638837 L 277.07539984768 298.9604909214147 L 285.22467631379 298.7283444099755 L 293.37395277989 298.6934978934592 L 301.523229246 298.9698160455528 L 309.67250571211 298.9280983849348 L 317.82178217822 298.8988960225022 L 325.97105864433 298.9415952751347 L 334.12033511043 298.89865062449854 L 342.26961157654 298.7106757537137 L 350.41888804265 298.6809825952738 L 358.56816450876 298.9217180368403 L 366.71744097487 298.92834378293844 L 374.86671744097 298.7936202789425 L 383.01599390708 298.72613582794276 L 391.16527037319 298.53767016115063 L 399.3145468393 298.2373030047008 L 407.46382330541 298.0996347246612 L 415.61309977152 298.3676093446312 L 423.76237623762 298.50036966459805 L 431.91165270373 298.4738666802054 L 440.06092916984 296.85718463225453 L 448.21020563595 297.14135552046446 L 456.35948210206 297.8802489094111 L 464.50875856816 297.80761110033495 L 472.65803503427 297.3273672072202 L 480.80731150038 297.1366929583954 L 488.95658796649 297.9079788838219 L 497.1058644326 297.6581637161209 L 505.25514089871 297.4851581235578 L 513.40441736481 297.6795133424372 L 521.55369383092 298.1450333553338 L 529.70297029703 298.4009834731257" class="highcharts-graph" stroke="#5cb85c" stroke-width="2" stroke-linejoin="round" stroke-linecap="round"></path></g><g class="highcharts-markers highcharts-series-4 highcharts-line-series highcharts-color-undefined " transform="translate(55,46) scale(1 1)" width="299" height="535" clip-path="none"></g><g class="highcharts-series highcharts-series-5 highcharts-line-series highcharts-color-undefined " transform="translate(55,46) scale(1 1)" width="299" height="535" clip-path="url(#highcharts-ql9vczr-168)"><path fill="none" d="M 8.1492764661081 298.0837865542473 L 16.298552932216 298.99926663811704 L 24.447829398324 299 L 32.597105864433 298.96919880091656 L 40.746382330541 298.6665647972234 L 48.895658796649 298.96577644546284 L 57.044935262757 298.98753284799 L 65.194211728865 298.90295177749096 L 73.343488194973 299 L 81.492764661081 299 L 89.64204112719 299 L 97.791317593298 299 L 105.94059405941 299 L 114.08987052551 298.99828882227314 L 122.23914699162 298.999755546039 L 130.38842345773 299 L 138.53769992384 299 L 146.68697638995 298.9985332762341 L 154.83625285605 299 L 162.98552932216 299 L 171.13480578827 299 L 179.28408225438 298.99339974305354 L 187.43335872049 298.9731100642922 L 195.5826351866 298.98337713065337 L 203.7319116527 298.97066552468243 L 211.88118811881 298.8694615848367 L 220.03046458492 298.92861944339387 L 228.17974105103 298.9173745611888 L 236.32901751714 298.9320417988476 L 244.47829398324 298.81568171342116 L 252.62757044935 298.9826437687704 L 260.77684691546 298.9960887366243 L 268.92612338157 298.99364419701453 L 277.07539984768 298.9621096360481 L 285.22467631379 298.71301104980955 L 293.37395277989 298.6812320348822 L 301.523229246 298.97042107072144 L 309.67250571211 298.926663811706 L 317.82178217822 298.8961070665835 L 325.97105864433 298.9427977731307 L 334.12033511043 298.8963515205445 L 342.26961157654 298.6963881804629 L 350.41888804265 298.6778096794285 L 358.56816450876 298.9227525483303 L 366.71744097487 298.92641935774503 L 374.86671744097 298.8066369168649 L 383.01599390708 298.70616633890216 L 391.16527037319 298.5228258681672 L 399.3145468393 298.2292366610303 L 407.46382330541 298.0705860403544 L 415.61309977152 298.35830835242774 L 423.76237623762 298.4778463393469 L 431.91165270373 298.44924522591225 L 440.06092916984 296.84122707058634 L 448.21020563595 297.1037706246788 L 456.35948210206 297.8566888244969 L 464.50875856816 297.74644008809497 L 472.65803503427 297.307889682097 L 480.80731150038 297.1049928944837 L 488.95658796649 297.8537553769652 L 497.1058644326 297.6217685679952 L 505.25514089871 297.4577399601777 L 513.40441736481 297.66063674779105 L 521.55369383092 298.11801010878446 L 529.70297029703 298.39130963716" class="highcharts-graph" stroke="#5cb85c" stroke-width="2" stroke-linejoin="round" stroke-linecap="round"></path></g><g class="highcharts-markers highcharts-series-5 highcharts-line-series highcharts-color-undefined " transform="translate(55,46) scale(1 1)" width="299" height="535" clip-path="none"></g></g><text x="330" text-anchor="middle" class="highcharts-title" style="color:#333333;font-size:18px;fill:#333333;width:536px;" y="24"><tspan>FastQC: Per Base N Content</tspan></text><g class="highcharts-axis-labels highcharts-xaxis-labels "><text x="55" style="color:#666666;cursor:default;font-size:11px;fill:#666666;width:79px;text-overflow:clip;" text-anchor="middle" transform="translate(0,0)" y="364" opacity="1"><tspan>0</tspan></text><text x="136.49276466108148" style="color:#666666;cursor:default;font-size:11px;fill:#666666;width:79px;text-overflow:clip;" text-anchor="middle" transform="translate(0,0)" y="364" opacity="1"><tspan>10</tspan></text><text x="217.98552932216296" style="color:#666666;cursor:default;font-size:11px;fill:#666666;width:79px;text-overflow:clip;" text-anchor="middle" transform="translate(0,0)" y="364" opacity="1"><tspan>20</tspan></text><text x="299.47829398324444" style="color:#666666;cursor:default;font-size:11px;fill:#666666;width:79px;text-overflow:clip;" text-anchor="middle" transform="translate(0,0)" y="364" opacity="1"><tspan>30</tspan></text><text x="380.9710586443259" style="color:#666666;cursor:default;font-size:11px;fill:#666666;width:79px;text-overflow:clip;" text-anchor="middle" transform="translate(0,0)" y="364" opacity="1"><tspan>40</tspan></text><text x="462.4638233054074" style="color:#666666;cursor:default;font-size:11px;fill:#666666;width:79px;text-overflow:clip;" text-anchor="middle" transform="translate(0,0)" y="364" opacity="1"><tspan>50</tspan></text><text x="543.9565879664889" style="color:#666666;cursor:default;font-size:11px;fill:#666666;width:79px;text-overflow:clip;" text-anchor="middle" transform="translate(0,0)" y="364" opacity="1"><tspan>60</tspan></text></g><g class="highcharts-axis-labels highcharts-yaxis-labels "><text x="40" style="color:#666666;cursor:default;font-size:11px;fill:#666666;width:188px;text-overflow:clip;" text-anchor="end" transform="translate(0,0)" y="350" opacity="1"><tspan>0</tspan></text><text x="40" style="color:#666666;cursor:default;font-size:11px;fill:#666666;width:188px;text-overflow:clip;" text-anchor="end" transform="translate(0,0)" y="300" opacity="1"><tspan>1</tspan></text><text x="40" style="color:#666666;cursor:default;font-size:11px;fill:#666666;width:188px;text-overflow:clip;" text-anchor="end" transform="translate(0,0)" y="250" opacity="1"><tspan>2</tspan></text><text x="40" style="color:#666666;cursor:default;font-size:11px;fill:#666666;width:188px;text-overflow:clip;" text-anchor="end" transform="translate(0,0)" y="200" opacity="1"><tspan>3</tspan></text><text x="40" style="color:#666666;cursor:default;font-size:11px;fill:#666666;width:188px;text-overflow:clip;" text-anchor="end" transform="translate(0,0)" y="150" opacity="1"><tspan>4</tspan></text><text x="40" style="color:#666666;cursor:default;font-size:11px;fill:#666666;width:188px;text-overflow:clip;" text-anchor="end" transform="translate(0,0)" y="100" opacity="1"><tspan>5</tspan></text><text x="40" style="color:#666666;cursor:default;font-size:11px;fill:#666666;width:188px;text-overflow:clip;" text-anchor="end" transform="translate(0,0)" y="51" opacity="1"><tspan>6</tspan></text></g><text x="590" class="highcharts-credits" text-anchor="end" style="cursor:pointer;color:#999999;font-size:9px;fill:#999999;" y="395"><tspan>Created with MultiQC</tspan></text></svg>