<svg xmlns:xlink="http://www.w3.org/1999/xlink" version="1.1" class="highcharts-root" style="font-family:&quot;lucida grande&quot;, &quot;lucida sans unicode&quot;, arial, helvetica, sans-serif;font-size:12px;" xmlns="http://www.w3.org/2000/svg" width="600" height="400"><desc>Created with Highcharts 5.0.6</desc><defs><clipPath id="highcharts-ql9vczr-158"><rect x="0" y="0" width="535" height="299" fill="none"></rect></clipPath></defs><rect fill="#ffffff" class="highcharts-background" x="0" y="0" width="600" height="400" rx="0" ry="0"></rect><rect fill="none" class="highcharts-plot-background" x="55" y="46" width="535" height="299"></rect><g class="highcharts-grid highcharts-xaxis-grid "><path fill="none" class="highcharts-grid-line" d="M 54.5 46 L 54.5 345" opacity="1"></path><path fill="none" class="highcharts-grid-line" d="M 161.5 46 L 161.5 345" opacity="1"></path><path fill="none" class="highcharts-grid-line" d="M 268.5 46 L 268.5 345" opacity="1"></path><path fill="none" class="highcharts-grid-line" d="M 375.5 46 L 375.5 345" opacity="1"></path><path fill="none" class="highcharts-grid-line" d="M 482.5 46 L 482.5 345" opacity="1"></path><path fill="none" class="highcharts-grid-line" d="M 589.5 46 L 589.5 345" opacity="1"></path></g><g class="highcharts-grid highcharts-yaxis-grid "><path fill="none" stroke="#e6e6e6" stroke-width="1" class="highcharts-grid-line" d="M 55 345.5 L 590 345.5" opacity="1"></path><path fill="none" stroke="#e6e6e6" stroke-width="1" class="highcharts-grid-line" d="M 55 285.5 L 590 285.5" opacity="1"></path><path fill="none" stroke="#e6e6e6" stroke-width="1" class="highcharts-grid-line" d="M 55 225.5 L 590 225.5" opacity="1"></path><path fill="none" stroke="#e6e6e6" stroke-width="1" class="highcharts-grid-line" d="M 55 166.5 L 590 166.5" opacity="1"></path><path fill="none" stroke="#e6e6e6" stroke-width="1" class="highcharts-grid-line" d="M 55 106.5 L 590 106.5" opacity="1"></path><path fill="none" stroke="#e6e6e6" stroke-width="1" class="highcharts-grid-line" d="M 55 45.5 L 590 45.5" opacity="1"></path></g><rect fill="none" class="highcharts-plot-border" x="55" y="46" width="535" height="299"></rect><g class="highcharts-axis highcharts-xaxis "><path fill="none" class="highcharts-tick" stroke="#ccd6eb" stroke-width="1" d="M 54.5 345 L 54.5 355" opacity="1"></path><path fill="none" class="highcharts-tick" stroke="#ccd6eb" stroke-width="1" d="M 161.5 345 L 161.5 355" opacity="1"></path><path fill="none" class="highcharts-tick" stroke="#ccd6eb" stroke-width="1" d="M 268.5 345 L 268.5 355" opacity="1"></path><path fill="none" class="highcharts-tick" stroke="#ccd6eb" stroke-width="1" d="M 375.5 345 L 375.5 355" opacity="1"></path><path fill="none" class="highcharts-tick" stroke="#ccd6eb" stroke-width="1" d="M 482.5 345 L 482.5 355" opacity="1"></path><path fill="none" class="highcharts-tick" stroke="#ccd6eb" stroke-width="1" d="M 590.5 345 L 590.5 355" opacity="1"></path><text x="322.5" text-anchor="middle" transform="translate(0,0)" class="highcharts-axis-title" style="color:#666666;fill:#666666;" y="383"><tspan>% GC</tspan></text><path fill="none" class="highcharts-axis-line" stroke="#ccd6eb" stroke-width="1" d="M 55 345.5 L 590 345.5"></path></g><g class="highcharts-axis highcharts-yaxis "><text x="23.883333206176758" text-anchor="middle" transform="translate(0,0) rotate(270 23.883333206176758 195.5)" class="highcharts-axis-title" style="color:#666666;fill:#666666;" y="195.5">Percentage</text><path fill="none" class="highcharts-axis-line" d="M 55 46 L 55 345"></path></g><g class="highcharts-series-group"><g class="highcharts-series highcharts-series-0 highcharts-line-series highcharts-color-undefined " transform="translate(55,46) scale(1 1)" width="299" height="535" clip-path="url(#highcharts-ql9vczr-158)"><path fill="none" d="M 0 298.986740425003 L 5.35 298.987937469968 L 10.7 298.98609586232953 L 16.05 298.98305720972604 L 21.4 298.9772561456649 L 26.75 298.9643648921956 L 32.1 298.95727470278746 L 37.45 298.9480666645951 L 42.8 298.91031370800647 L 48.15 298.88176878961013 L 53.5 298.8581041314558 L 58.85 298.8344394733015 L 64.2 298.7932795425816 L 69.55 298.67854738670485 L 74.9 298.60497516154794 L 80.25 298.47762799334765 L 85.6 298.1096747871811 L 90.95 297.8690687492149 L 96.3 297.4813182609348 L 101.65 296.4815094740088 L 107 295.86945117536294 L 112.35 294.80196330772316 L 117.7 292.39424548118603 L 123.05 291.0540155222887 L 128.4 288.998689317373 L 133.75 284.0316893556526 L 139.1 281.12001559884783 L 144.45 277.80668721609254 L 149.8 269.91033406423804 L 155.15 265.32730929513883 L 160.5 260.39051169868935 L 165.85 255.45371410223984 L 171.2 248.44777824358613 L 176.55 235.62696626645987 L 181.9 229.81209014798733 L 187.25 221.76684301856244 L 192.6 205.34531978669747 L 197.95 196.96904368425743 L 203.3 189.13401606676402 L 208.65 173.4303514923751 L 214 165.56171453547958 L 219.35 157.67235949265128 L 224.7 140.944024428217 L 230.05 132.10504440661109 L 235.4 123.21532809456528 L 240.75 104.47319507746286 L 246.1 94.62077837240625 L 251.45 86.79192014050176 L 256.8 73.26080009721719 L 262.15 67.55853828583716 L 267.5 61.00646662968467 L 272.85 54.454394973532146 L 278.2 53.064533688778 L 283.55 52.608275396346784 L 288.9 53.541878388669716 L 294.25 59.49450675849985 L 299.6 75.49034238473223 L 304.95 85.53354964113444 L 310.3 98.7226831459549 L 315.65 125.37323184494377 L 321 138.8346470391122 L 326.35 153.47257327311792 L 331.7 182.66564547778 L 337.05 197.22079144843644 L 342.4 210.00136429866205 L 347.75 233.68802966429556 L 353.1 244.5941221797034 L 358.45 252.99535206564474 L 363.8 267.502524157319 L 369.15 273.6084663630519 L 374.5 277.70079477688046 L 379.85 281.793123190709 L 385.2 284.5201757817571 L 390.55 289.00854191823885 L 395.9 290.7698554636726 L 401.25 292.0192020856114 L 406.6 294.08815618705177 L 411.95 294.90776366655336 L 417.3 295.61181026674086 L 422.65 296.7382295788117 L 428 297.16060229069507 L 433.35 297.4812261805529 L 438.7 298.0179627267853 L 444.05 298.23407538315985 L 449.4 298.3944794084707 L 454.75 298.6453984492124 L 460.1 298.73591346464326 L 465.45 298.803684625739 L 470.8 298.9162068524496 L 476.15 298.9609579180644 L 481.5 298.9745858145891 L 486.85 298.98821371111376 L 492.2 298.99244940868226 L 497.55 298.9981583923615 L 502.9 298.9996316784723 L 508.25 298.9997237588542 L 513.6 298.99981583923613 L 518.95 298.99981583923613 L 524.3 298.99990791961807 L 529.65 299 L 535 299" class="highcharts-graph" stroke="#5cb85c" stroke-width="2" stroke-linejoin="round" stroke-linecap="round"></path></g><g class="highcharts-markers highcharts-series-0 highcharts-line-series highcharts-color-undefined " transform="translate(55,46) scale(1 1)" width="299" height="535" clip-path="none"></g><g class="highcharts-series highcharts-series-1 highcharts-line-series highcharts-color-undefined " transform="translate(55,46) scale(1 1)" width="299" height="535" clip-path="url(#highcharts-ql9vczr-158)"><path fill="none" d="M 0 298.98419626233675 L 5.35 298.98903934323357 L 10.7 298.987892297758 L 16.05 298.9819021713856 L 21.4 298.974892449035 L 26.75 298.96252984779846 L 32.1 298.9571769689125 L 37.45 298.94545161516237 L 42.8 298.9073442154744 L 48.15 298.8809621695366 L 53.5 298.84400181532413 L 58.85 298.80704146111174 L 64.2 298.7328658536923 L 69.55 298.56412271928804 L 74.9 298.4695551923032 L 80.25 298.30501789130926 L 85.6 297.8323077058822 L 90.95 297.524134821449 L 96.3 296.9563473110479 L 101.65 295.47054107170874 L 107 294.5525223427707 L 112.35 293.0590691335945 L 117.7 289.62213854033155 L 123.05 287.67866115624486 L 128.4 284.70845062203665 L 133.75 277.543622233211 L 139.1 273.3490043785936 L 144.45 269.0429956633497 L 149.8 258.7476252727323 L 155.15 252.75826359735882 L 160.5 245.92136276504542 L 165.85 239.08446193273198 L 171.2 230.39533755638735 L 176.55 214.39825900576693 L 181.9 207.0903048314911 L 187.25 197.75679579687755 L 192.6 179.0942384600554 L 197.95 169.76519015784683 L 203.3 161.08129121089087 L 208.65 145.08306561479486 L 214 137.76873896565482 L 219.35 129.67429394363828 L 224.7 114.65475303718762 L 230.05 107.7296571527535 L 235.4 99.7797398606572 L 240.75 84.39429144750363 L 246.1 76.95876032644637 L 251.45 72.67505527322723 L 256.8 66.30857053538978 L 262.15 64.22579085077143 L 267.5 61.80488764985816 L 272.85 59.3839844489448 L 278.2 61.762574416759776 L 283.55 68.78555151510812 L 288.9 73.4299386456415 L 294.25 83.40477355058914 L 299.6 105.2958815526145 L 304.95 117.21215464969228 L 310.3 131.3700095050045 L 315.65 158.77623960300892 L 321 172.02461484570108 L 326.35 185.31657781646447 L 331.7 211.59883079791953 L 337.05 224.58912080861126 L 342.4 235.58227719685956 L 347.75 254.7876419426151 L 353.1 262.99985030012226 L 358.45 269.39246218490297 L 363.8 280.13122937657204 L 369.15 284.4773846834604 L 374.5 287.1169912217134 L 379.85 289.7565977599664 L 385.2 291.4374017301504 L 390.55 294.24549650381306 L 395.9 295.3727873072918 L 401.25 296.0945338104122 L 406.6 297.24387337692104 L 411.95 297.67146644030953 L 417.3 297.94165937455205 L 422.65 298.3821248371662 L 428 298.5523973655379 L 433.35 298.65129817543044 L 438.7 298.8065316631226 L 444.05 298.8628643409222 L 449.4 298.89880509915633 L 454.75 298.9476182566162 L 460.1 298.9604906558419 L 465.45 298.97221600959205 L 470.8 298.99005893921185 L 476.15 298.99617651508146 L 481.5 298.99694121206517 L 486.85 298.9977059090489 L 492.2 298.99885295452447 L 497.55 298.99987255050274 L 502.9 298.99974510100543 L 508.25 298.99987255050274 L 513.6 299 L 518.95 299 L 524.3 299 L 529.65 299 L 535 299" class="highcharts-graph" stroke="#5cb85c" stroke-width="2" stroke-linejoin="round" stroke-linecap="round"></path></g><g class="highcharts-markers highcharts-series-1 highcharts-line-series highcharts-color-undefined " transform="translate(55,46) scale(1 1)" width="299" height="535" clip-path="none"></g><g class="highcharts-series highcharts-series-2 highcharts-line-series highcharts-color-undefined " transform="translate(55,46) scale(1 1)" width="299" height="535" clip-path="url(#highcharts-ql9vczr-158)"><path fill="none" d="M 0 298.99663303793324 L 5.35 298.99623220911576 L 10.7 298.99318591010297 L 16.05 298.9905404399076 L 21.4 298.98693298055036 L 26.75 298.9785155753834 L 32.1 298.9737056295737 L 37.45 298.9664907108592 L 42.8 298.93811203058203 L 48.15 298.91694826901943 L 53.5 298.8945820210044 L 58.85 298.8722157729893 L 64.2 298.82748327695924 L 69.55 298.7112429198918 L 74.9 298.63973505885446 L 80.25 298.5199674081933 L 85.6 298.1662760596543 L 90.95 297.93235236177657 L 96.3 297.54130376744905 L 101.65 296.48223386591957 L 107 295.81421255871754 L 112.35 294.75858978501833 L 117.7 292.23553271054726 L 123.05 290.76809840977535 L 128.4 288.5722779818899 L 133.75 283.3088344481134 L 139.1 280.24121134222224 L 144.45 276.6060947965516 L 149.8 268.1975880293479 L 155.15 263.4241978078149 L 160.5 257.96883743623187 L 165.85 252.5134770646488 L 171.2 245.44622368647626 L 176.55 231.73154503355335 L 181.9 225.08411975880293 L 187.25 216.75770273341794 L 192.6 199.86950200102729 L 197.95 191.3077182940216 L 203.3 182.8281044945981 L 208.65 166.89419701084927 L 214 159.43990332652393 L 219.35 151.40953846572515 L 224.7 135.45839534282496 L 230.05 127.53761708072349 L 235.4 118.65180335767195 L 240.75 100.41842111383895 L 246.1 91.07085259305751 L 251.45 83.56308834448114 L 256.8 71.46326883139699 L 262.15 66.8712135668892 L 267.5 61.11867871003099 L 272.85 55.36614385317279 L 278.2 54.63871971522116 L 283.55 55.089732300642794 L 288.9 56.26816902401603 L 294.25 63.376226775807396 L 299.6 80.64601654243319 L 304.95 90.80774855726764 L 310.3 104.3075829640245 L 315.65 131.46630065231207 L 321 145.12518393384258 L 326.35 159.69875857684858 L 331.7 188.62240571423706 L 337.05 202.97247820861958 L 342.4 215.52900207633348 L 347.75 238.41239943168105 L 353.1 248.73927291931471 L 358.45 256.9501710795037 L 363.8 270.7119070355981 L 369.15 276.2627448315034 L 374.5 280.04769118914584 L 379.85 283.8326375467882 L 385.2 286.1934391159459 L 390.55 290.1641295476057 L 395.9 291.77401841010783 L 401.25 292.88086710668017 L 406.6 294.65597760774506 L 411.95 295.3242394122375 L 417.3 295.9351025300677 L 422.65 296.9137661708119 L 428 297.28156669372595 L 433.35 297.58683792111407 L 438.7 298.0799375323704 L 444.05 298.2677659162387 L 449.4 298.42088252451373 L 454.75 298.65697069800586 L 460.1 298.73994226322293 L 465.45 298.80567818928864 L 470.8 298.90813003503496 L 476.15 298.9448459547156 L 481.5 298.9652882244068 L 486.85 298.98573049409794 L 492.2 298.9910214344886 L 497.55 298.9979958559126 L 502.9 298.99967933694603 L 508.25 298.99967933694603 L 513.6 298.999839668473 L 518.95 299 L 524.3 298.9999198342365 L 529.65 298.9999198342365 L 535 299" class="highcharts-graph" stroke="#5cb85c" stroke-width="2" stroke-linejoin="round" stroke-linecap="round"></path></g><g class="highcharts-markers highcharts-series-2 highcharts-line-series highcharts-color-undefined " transform="translate(55,46) scale(1 1)" width="299" height="535" clip-path="none"></g><g class="highcharts-series highcharts-series-3 highcharts-line-series highcharts-color-undefined " transform="translate(55,46) scale(1 1)" width="299" height="535" clip-path="url(#highcharts-ql9vczr-158)"><path fill="none" d="M 0 298.9910967943528 L 5.35 298.99165324470573 L 10.7 298.98942744329395 L 16.05 298.9866451915292 L 21.4 298.9819153635291 L 26.75 298.9684678133328 L 32.1 298.9597500911366 L 37.45 298.9526089782737 L 42.8 298.92126227505753 L 48.15 298.8970566847042 L 53.5 298.87127448501747 L 58.85 298.84549228533075 L 64.2 298.79791578015346 L 69.55 298.6713233248572 L 74.9 298.59230737473825 L 80.25 298.45569881308893 L 85.6 298.0672964667295 L 90.95 297.81550268201937 L 96.3 297.37052788310996 L 101.65 296.2381514148557 L 107 295.5507497455108 L 112.35 294.4154982837663 L 117.7 291.7105003763484 L 123.05 290.14075393067503 L 128.4 287.7361464721249 L 133.75 282.0616512561867 L 139.1 278.79176349879856 L 144.45 275.18735633756165 L 149.8 266.84505264612767 L 155.15 262.10715611593065 L 160.5 256.8670631421957 L 165.85 251.62697016846084 L 171.2 244.80859851030735 L 176.55 231.77680946938304 L 181.9 225.56339208661223 L 187.25 217.84857890985546 L 192.6 201.81705875790047 L 197.95 193.50035178270224 L 203.3 185.5107448733134 L 208.65 170.3981097375307 L 214 163.27508151113676 L 219.35 155.76198158732458 L 224.7 140.13258955710182 L 230.05 132.01629745069127 L 235.4 123.49620787148964 L 240.75 105.56144202899296 L 246.1 96.1467657656979 L 251.45 88.59833124447331 L 256.8 75.64694927955034 L 262.15 70.24400183585192 L 267.5 63.93765724413839 L 272.85 57.63131265242487 L 278.2 55.838615098669294 L 283.55 54.333138668761706 L 288.9 54.62035979260969 L 294.25 60.74548705271232 L 299.6 77.75886385244848 L 304.95 88.64711339208199 L 310.3 101.96306307991301 L 315.65 128.83479255769674 L 321 142.39057234764945 L 326.35 156.89908788357894 L 331.7 185.45370871213598 L 337.05 199.49981400476358 L 342.4 212.13142250019098 L 347.75 235.40514399579678 L 353.1 246.04725699597515 L 358.45 254.2966334784664 L 363.8 268.4258353571346 L 369.15 274.30566075331154 L 374.5 278.3444701567518 L 379.85 282.3832795601921 L 385.2 285.0055518484713 L 390.55 289.3677516487013 L 395.9 291.107679160652 L 401.25 292.2918055117307 L 406.6 294.2974380672153 L 411.95 295.1189442716212 L 417.3 295.75403960778874 L 422.65 296.8061944834926 L 428 297.223254023029 L 433.35 297.566491149074 L 438.7 298.11876812437737 L 444.05 298.3278079736358 L 449.4 298.47767860203044 L 454.75 298.69599262383804 L 460.1 298.76443601725094 L 465.45 298.8226778208598 L 470.8 298.9233025930183 L 476.15 298.9656855615681 L 481.5 298.9782984362349 L 486.85 298.9909113109018 L 492.2 298.994528238196 L 497.55 298.9989798410196 L 502.9 298.999814516549 L 508.25 298.999814516549 L 513.6 298.999814516549 L 518.95 298.999814516549 L 524.3 298.9999072582745 L 529.65 299 L 535 299" class="highcharts-graph" stroke="#f0ad4e" stroke-width="2" stroke-linejoin="round" stroke-linecap="round"></path></g><g class="highcharts-markers highcharts-series-3 highcharts-line-series highcharts-color-undefined " transform="translate(55,46) scale(1 1)" width="299" height="535" clip-path="none"></g><g class="highcharts-series highcharts-series-4 highcharts-line-series highcharts-color-undefined " transform="translate(55,46) scale(1 1)" width="299" height="535" clip-path="url(#highcharts-ql9vczr-158)"><path fill="none" d="M 0 298.9942581129919 L 5.35 298.9939710186415 L 10.7 298.9911957732542 L 16.05 298.98870762221736 L 21.4 298.98392271637726 L 26.75 298.9754055839819 L 32.1 298.97167335742665 L 37.45 298.9646873949001 L 42.8 298.93540377115875 L 48.15 298.9131061099439 L 53.5 298.8843966749033 L 58.85 298.85568723986273 L 64.2 298.80573282289214 L 69.55 298.6854402900722 L 74.9 298.6151021742228 L 80.25 298.4780624709625 L 85.6 298.1128784572465 L 90.95 297.8847341467908 L 96.3 297.4538055268319 L 101.65 296.37279959943777 L 107 295.7227222920025 L 112.35 294.60190594801884 L 117.7 291.96121211298754 L 123.05 290.44133462194 L 128.4 288.1285025350719 L 133.75 282.58193538335127 L 139.1 279.3482003184987 L 144.45 275.77971324107307 L 149.8 267.277605450043 L 155.15 262.3439847364384 L 160.5 257.06374544377746 L 165.85 251.78350615111648 L 171.2 244.93975102614627 L 176.55 231.62929135640528 L 181.9 225.1625868116345 L 187.25 217.20414002215588 L 192.6 201.15987224973537 L 197.95 193.07405126679342 L 203.3 184.64457834641593 L 208.65 169.30445731742367 L 214 162.39380920880896 L 219.35 154.74083080816195 L 224.7 138.8792507407162 L 230.05 130.6706490739175 L 235.4 122.26969419234695 L 240.75 104.51415269527507 L 246.1 95.1595660797737 L 251.45 87.8715802966091 L 256.8 75.05473151333223 L 262.15 69.52586851321999 L 267.5 63.2658719007413 L 272.85 57.00587528826256 L 278.2 55.38465349152179 L 283.55 53.75338339251684 L 288.9 53.74333509025257 L 294.25 60.48804266433291 L 299.6 77.99486475583669 L 304.95 88.75697927326019 L 310.3 102.32639804706707 L 315.65 129.6168214116951 L 321 143.3378260025162 L 326.35 157.96958957094085 L 331.7 186.81443744678194 L 337.05 201.02752175419835 L 342.4 213.5568933946023 L 347.75 236.60023433556253 L 353.1 247.11420363611876 L 358.45 255.35495987016293 L 363.8 269.359039490484 L 369.15 275.1223628767609 L 374.5 278.98990656919244 L 379.85 282.8574502616239 L 385.2 285.3803397148721 L 390.55 289.55383028671923 L 395.9 291.2044314053182 L 401.25 292.33663582520137 L 406.6 294.1637999692998 L 411.95 294.8587596935151 L 417.3 295.5726676448572 L 422.65 296.6597982517266 L 428 297.033020907254 L 433.35 297.39102756220984 L 438.7 297.9663646404228 L 444.05 298.1836950636799 L 449.4 298.35011408879836 L 454.75 298.60122594728654 L 460.1 298.6859187806562 L 465.45 298.7575966701408 L 470.8 298.88602354288895 L 476.15 298.94277252615245 L 481.5 298.9643046024329 L 486.85 298.9858366787133 L 492.2 298.9909086789038 L 497.55 298.99751184896314 L 502.9 298.99904301883197 L 508.25 298.999521509416 L 513.6 299 L 518.95 299 L 524.3 299 L 529.65 299 L 535 299" class="highcharts-graph" stroke="#f0ad4e" stroke-width="2" stroke-linejoin="round" stroke-linecap="round"></path></g><g class="highcharts-markers highcharts-series-4 highcharts-line-series highcharts-color-undefined " transform="translate(55,46) scale(1 1)" width="299" height="535" clip-path="none"></g><g class="highcharts-series highcharts-series-5 highcharts-line-series highcharts-color-undefined " transform="translate(55,46) scale(1 1)" width="299" height="535" clip-path="url(#highcharts-ql9vczr-158)"><path fill="none" d="M 0 298.9702527635007 L 5.35 298.9814079771879 L 10.7 298.98846341148584 L 16.05 298.9843636320965 L 21.4 298.98121728977446 L 26.75 298.96958535755357 L 32.1 298.96109976765473 L 37.45 298.95118402215496 L 42.8 298.9160975380788 L 48.15 298.89092679950244 L 53.5 298.8557449717196 L 58.85 298.82056314393674 L 64.2 298.7356119012415 L 69.55 298.5703812574808 L 74.9 298.4901018564153 L 80.25 298.30942553216454 L 85.6 297.8328976859349 L 90.95 297.53704616395595 L 96.3 296.8886136144946 L 101.65 295.3976287286724 L 107 294.5550763923115 L 112.35 293.04254382876854 L 117.7 289.44541646131097 L 123.05 287.36082165739634 L 128.4 284.06641055880215 L 133.75 276.53931094369733 L 139.1 272.30662242718677 L 144.45 267.68483624351666 L 149.8 256.55078885916123 L 155.15 250.0385276584759 L 160.5 243.07376522565656 L 165.85 236.1090027928372 L 171.2 228.12167910535334 L 176.55 212.41008501724986 L 181.9 204.6858146166303 L 187.25 195.53615580041776 L 192.6 177.2718293083621 L 197.95 168.15716163251895 L 203.3 159.62552072332136 L 208.65 144.75781378347298 L 214 138.42174775282217 L 219.35 129.85025317421204 L 224.7 116.17958647234153 L 230.05 111.0804143490812 L 235.4 102.81974025440638 L 240.75 87.80491797507568 L 246.1 81.05076979041988 L 251.45 76.51250469384402 L 256.8 69.81213035978317 L 262.15 67.65002112229811 L 267.5 64.89763899645615 L 272.85 62.14525687061422 L 278.2 63.78192694031776 L 283.55 68.94907912647565 L 288.9 72.47956124292992 L 294.25 82.61421589335583 L 299.6 105.63142616583355 L 304.95 118.5139817878852 L 310.3 132.44455543429794 L 315.65 159.6412524349316 L 321 172.90737578915252 L 326.35 185.5873260344059 L 331.7 211.26281419418433 L 337.05 224.25835210870943 L 342.4 235.0781466356873 L 347.75 254.25081262174658 L 353.1 262.603684080828 L 358.45 269.07170580159124 L 363.8 279.6803140181652 L 369.15 283.8209005139759 L 374.5 286.519127414396 L 379.85 289.21735431481613 L 385.2 290.9576629937337 L 390.55 293.83427796944306 L 395.9 294.9705842662348 L 401.25 295.69538712478584 L 406.6 296.8387488558755 L 411.95 297.25730772841416 L 417.3 297.58824573446924 L 422.65 298.1268423337792 L 428 298.3345009270342 L 433.35 298.4743701448051 L 438.7 298.6915631087329 L 444.05 298.7688868548898 L 449.4 298.82428154849913 L 454.75 298.90179598206953 L 460.1 298.92391572203053 L 465.45 298.9471795864723 L 470.8 298.9793104156399 L 476.15 298.98817738036564 L 481.5 298.99256319087516 L 486.85 298.9969490013847 L 492.2 298.99818846957214 L 497.55 298.9997139688798 L 502.9 299 L 508.25 298.99990465629327 L 513.6 298.99980931258654 L 518.95 298.99980931258654 L 524.3 298.99990465629327 L 529.65 298.99980931258654 L 535 298.99961862517307" class="highcharts-graph" stroke="#f0ad4e" stroke-width="2" stroke-linejoin="round" stroke-linecap="round"></path></g><g class="highcharts-markers highcharts-series-5 highcharts-line-series highcharts-color-undefined " transform="translate(55,46) scale(1 1)" width="299" height="535" clip-path="none"></g></g><text x="330" text-anchor="middle" class="highcharts-title" style="color:#333333;font-size:18px;fill:#333333;width:536px;" y="24"><tspan>FastQC: Per Sequence GC Content</tspan></text><g class="highcharts-axis-labels highcharts-xaxis-labels "><text x="55" style="color:#666666;cursor:default;font-size:11px;fill:#666666;width:97px;text-overflow:clip;" text-anchor="middle" transform="translate(0,0)" y="364" opacity="1"><tspan>0</tspan></text><text x="162" style="color:#666666;cursor:default;font-size:11px;fill:#666666;width:97px;text-overflow:clip;" text-anchor="middle" transform="translate(0,0)" y="364" opacity="1"><tspan>20</tspan></text><text x="269" style="color:#666666;cursor:default;font-size:11px;fill:#666666;width:97px;text-overflow:clip;" text-anchor="middle" transform="translate(0,0)" y="364" opacity="1"><tspan>40</tspan></text><text x="376" style="color:#666666;cursor:default;font-size:11px;fill:#666666;width:97px;text-overflow:clip;" text-anchor="middle" transform="translate(0,0)" y="364" opacity="1"><tspan>60</tspan></text><text x="483" style="color:#666666;cursor:default;font-size:11px;fill:#666666;width:97px;text-overflow:clip;" text-anchor="middle" transform="translate(0,0)" y="364" opacity="1"><tspan>80</tspan></text><text x="580.8249998092651" style="color:#666666;cursor:default;font-size:11px;fill:#666666;width:97px;text-overflow:clip;" text-anchor="middle" transform="translate(0,0)" y="364" opacity="1"><tspan>100</tspan></text></g><g class="highcharts-axis-labels highcharts-yaxis-labels "><text x="40" style="color:#666666;cursor:default;font-size:11px;fill:#666666;width:188px;text-overflow:clip;" text-anchor="end" transform="translate(0,0)" y="350" opacity="1"><tspan>0</tspan></text><text x="40" style="color:#666666;cursor:default;font-size:11px;fill:#666666;width:188px;text-overflow:clip;" text-anchor="end" transform="translate(0,0)" y="290" opacity="1"><tspan>1</tspan></text><text x="40" style="color:#666666;cursor:default;font-size:11px;fill:#666666;width:188px;text-overflow:clip;" text-anchor="end" transform="translate(0,0)" y="230" opacity="1"><tspan>2</tspan></text><text x="40" style="color:#666666;cursor:default;font-size:11px;fill:#666666;width:188px;text-overflow:clip;" text-anchor="end" transform="translate(0,0)" y="170" opacity="1"><tspan>3</tspan></text><text x="40" style="color:#666666;cursor:default;font-size:11px;fill:#666666;width:188px;text-overflow:clip;" text-anchor="end" transform="translate(0,0)" y="110" opacity="1"><tspan>4</tspan></text><text x="40" style="color:#666666;cursor:default;font-size:11px;fill:#666666;width:188px;text-overflow:clip;" text-anchor="end" transform="translate(0,0)" y="51" opacity="1"><tspan>5</tspan></text></g><text x="590" class="highcharts-credits" text-anchor="end" style="cursor:pointer;color:#999999;font-size:9px;fill:#999999;" y="395"><tspan>Created with MultiQC</tspan></text></svg>