<svg xmlns:xlink="http://www.w3.org/1999/xlink" version="1.1" class="highcharts-root" style="font-family:&quot;lucida grande&quot;, &quot;lucida sans unicode&quot;, arial, helvetica, sans-serif;font-size:12px;" xmlns="http://www.w3.org/2000/svg" width="600" height="400"><desc>Created with Highcharts 5.0.6</desc><defs><clipPath id="highcharts-ql9vczr-148"><rect x="0" y="0" width="492" height="299" fill="none"></rect></clipPath></defs><rect fill="#ffffff" class="highcharts-background" x="0" y="0" width="600" height="400" rx="0" ry="0"></rect><rect fill="none" class="highcharts-plot-background" x="98" y="46" width="492" height="299"></rect><g class="highcharts-plot-bands-0"><path fill="#c3e6c3" class="highcharts-plot-band " d="M 466.5 46 L 466.5 345 589.5 345 589.5 46 z"></path><path fill="#e6dcc3" class="highcharts-plot-band " d="M 360.5 46 L 360.5 345 466.5 345 466.5 46 z"></path><path fill="#e6c3c3" class="highcharts-plot-band " d="M 97.5 46 L 97.5 345 360.5 345 360.5 46 z"></path></g><g class="highcharts-grid highcharts-xaxis-grid "><path fill="none" class="highcharts-grid-line" d="M 97.5 46 L 97.5 345" opacity="1"></path><path fill="none" class="highcharts-grid-line" d="M 229.5 46 L 229.5 345" opacity="1"></path><path fill="none" class="highcharts-grid-line" d="M 360.5 46 L 360.5 345" opacity="1"></path><path fill="none" class="highcharts-grid-line" d="M 492.5 46 L 492.5 345" opacity="1"></path></g><g class="highcharts-grid highcharts-yaxis-grid "><path fill="none" stroke="#e6e6e6" stroke-width="1" class="highcharts-grid-line" d="M 98 345.5 L 590 345.5" opacity="1"></path><path fill="none" stroke="#e6e6e6" stroke-width="1" class="highcharts-grid-line" d="M 98 270.5 L 590 270.5" opacity="1"></path><path fill="none" stroke="#e6e6e6" stroke-width="1" class="highcharts-grid-line" d="M 98 196.5 L 590 196.5" opacity="1"></path><path fill="none" stroke="#e6e6e6" stroke-width="1" class="highcharts-grid-line" d="M 98 121.5 L 590 121.5" opacity="1"></path><path fill="none" stroke="#e6e6e6" stroke-width="1" class="highcharts-grid-line" d="M 98 45.5 L 590 45.5" opacity="1"></path></g><rect fill="none" class="highcharts-plot-border" x="98" y="46" width="492" height="299"></rect><g class="highcharts-axis highcharts-xaxis "><path fill="none" class="highcharts-tick" stroke="#ccd6eb" stroke-width="1" d="M 97.5 345 L 97.5 355" opacity="1"></path><path fill="none" class="highcharts-tick" stroke="#ccd6eb" stroke-width="1" d="M 229.5 345 L 229.5 355" opacity="1"></path><path fill="none" class="highcharts-tick" stroke="#ccd6eb" stroke-width="1" d="M 360.5 345 L 360.5 355" opacity="1"></path><path fill="none" class="highcharts-tick" stroke="#ccd6eb" stroke-width="1" d="M 492.5 345 L 492.5 355" opacity="1"></path><text x="344" text-anchor="middle" transform="translate(0,0)" class="highcharts-axis-title" style="color:#666666;fill:#666666;" y="383"><tspan>Mean Sequence Quality (Phred Score)</tspan></text><path fill="none" class="highcharts-axis-line" stroke="#ccd6eb" stroke-width="1" d="M 98 345.5 L 590 345.5"></path></g><g class="highcharts-axis highcharts-yaxis "><text x="24.066665649414062" text-anchor="middle" transform="translate(0,0) rotate(270 24.066665649414062 195.5)" class="highcharts-axis-title" style="color:#666666;fill:#666666;" y="195.5">Count</text><path fill="none" class="highcharts-axis-line" d="M 98 46 L 98 345"></path></g><g class="highcharts-series-group"><g class="highcharts-series highcharts-series-0 highcharts-line-series highcharts-color-undefined " transform="translate(98,46) scale(1 1)" width="299" height="492" clip-path="url(#highcharts-ql9vczr-148)"><path fill="none" d="M 26.331281776826 298.877709 L 39.49692266524 298.9920765 L 52.662563553653 298.98031085 L 65.828204442066 298.9907908 L 78.993845330479 298.99379575 L 92.159486218892 298.99409475 L 105.32512710731 298.99487215 L 118.49076799572 298.9944087 L 131.65640888413 298.99445355 L 144.82204977254 298.99331735 L 157.98769066096 298.992226 L 171.15333154937 298.9905217 L 184.31897243778 298.98799515 L 197.4846133262 298.98593205 L 210.65025421461 298.98288225 L 223.81589510302 298.97983245 L 236.98153599144 298.9727611 L 250.14717687985 298.96359675 L 263.31281776826 298.9567646 L 276.47845865668 298.94176975 L 289.64409954509 298.91300595 L 302.8097404335 298.86776725 L 315.97538132192 298.77334305 L 329.14102221033 298.60697945 L 342.30666309874 298.3587347 L 355.47230398716 297.99316235 L 368.63794487557 297.50390865 L 381.80358576398 296.8630769 L 394.96922665239 296.01626405 L 408.13486754081 294.9569818 L 421.30050842922 293.52024195 L 434.46614931763 291.51227755 L 447.63179020605 288.4354928 L 460.79743109446 282.47443445 L 473.96307198287 261.6942783 L 487.12871287129 74.41390905" class="highcharts-graph" stroke="#5cb85c" stroke-width="2" stroke-linejoin="round" stroke-linecap="round"></path></g><g class="highcharts-markers highcharts-series-0 highcharts-line-series highcharts-color-undefined " transform="translate(98,46) scale(1 1)" width="299" height="492" clip-path="none"></g><g class="highcharts-series highcharts-series-1 highcharts-line-series highcharts-color-undefined " transform="translate(98,46) scale(1 1)" width="299" height="492" clip-path="url(#highcharts-ql9vczr-148)"><path fill="none" d="M 26.331281776826 298.91832815 L 39.49692266524 298.9923755 L 52.662563553653 298.98518455 L 65.828204442066 298.9935416 L 78.993845330479 298.99529075 L 92.159486218892 298.99552995 L 105.32512710731 298.9958439 L 118.49076799572 298.9961728 L 131.65640888413 298.9960831 L 144.82204977254 298.99499175 L 157.98769066096 298.9945881 L 171.15333154937 298.9929436 L 184.31897243778 298.99179245 L 197.4846133262 298.99056655 L 210.65025421461 298.9881895 L 223.81589510302 298.98536395 L 236.98153599144 298.98120785 L 250.14717687985 298.975482 L 263.31281776826 298.9688741 L 276.47845865668 298.95797555 L 289.64409954509 298.93961695 L 302.8097404335 298.9049479 L 315.97538132192 298.8407227 L 329.14102221033 298.7237539 L 342.30666309874 298.5468057 L 355.47230398716 298.28986005 L 368.63794487557 297.92914645 L 381.80358576398 297.4747412 L 394.96922665239 296.86730775 L 408.13486754081 296.08793435 L 421.30050842922 295.06634105 L 434.46614931763 293.5914488 L 447.63179020605 291.3298128 L 460.79743109446 286.99044075 L 473.96307198287 272.0007485 L 487.12871287129 136.81761600000002" class="highcharts-graph" stroke="#5cb85c" stroke-width="2" stroke-linejoin="round" stroke-linecap="round"></path></g><g class="highcharts-markers highcharts-series-1 highcharts-line-series highcharts-color-undefined " transform="translate(98,46) scale(1 1)" width="299" height="492" clip-path="none"></g><g class="highcharts-series highcharts-series-2 highcharts-line-series highcharts-color-undefined " transform="translate(98,46) scale(1 1)" width="299" height="492" clip-path="url(#highcharts-ql9vczr-148)"><path fill="none" d="M 26.331281776826 298.87018915 L 39.49692266524 298.99098515 L 52.662563553653 298.97971285 L 65.828204442066 298.9908805 L 78.993845330479 298.99280905 L 92.159486218892 298.9939004 L 105.32512710731 298.99400505 L 118.49076799572 298.99403495 L 131.65640888413 298.9938705 L 144.82204977254 298.99280905 L 157.98769066096 298.99176255 L 171.15333154937 298.9899835 L 184.31897243778 298.98682905 L 197.4846133262 298.98548355 L 210.65025421461 298.9810733 L 223.81589510302 298.97779925 L 236.98153599144 298.97211825 L 250.14717687985 298.96162335 L 263.31281776826 298.95205535 L 276.47845865668 298.9335921 L 289.64409954509 298.9035725 L 302.8097404335 298.8522641 L 315.97538132192 298.7528466 L 329.14102221033 298.5805927 L 342.30666309874 298.3055127 L 355.47230398716 297.90645235 L 368.63794487557 297.36376735 L 381.80358576398 296.6595177 L 394.96922665239 295.73642995 L 408.13486754081 294.53104135 L 421.30050842922 292.93028505 L 434.46614931763 290.65316085 L 447.63179020605 287.1824436 L 460.79743109446 280.47388525 L 473.96307198287 256.94034275 L 487.12871287129 38.25353675000002" class="highcharts-graph" stroke="#5cb85c" stroke-width="2" stroke-linejoin="round" stroke-linecap="round"></path></g><g class="highcharts-markers highcharts-series-2 highcharts-line-series highcharts-color-undefined " transform="translate(98,46) scale(1 1)" width="299" height="492" clip-path="none"></g><g class="highcharts-series highcharts-series-3 highcharts-line-series highcharts-color-undefined " transform="translate(98,46) scale(1 1)" width="299" height="492" clip-path="url(#highcharts-ql9vczr-148)"><path fill="none" d="M 26.331281776826 298.88271725 L 39.49692266524 298.99182235 L 52.662563553653 298.9821198 L 65.828204442066 298.9915682 L 78.993845330479 298.9933323 L 92.159486218892 298.9947077 L 105.32512710731 298.99415455 L 118.49076799572 298.99469275 L 131.65640888413 298.9940499 L 144.82204977254 298.99346685 L 157.98769066096 298.99233065 L 171.15333154937 298.9906413 L 184.31897243778 298.9890267 L 197.4846133262 298.98664965 L 210.65025421461 298.98464635 L 223.81589510302 298.9791298 L 236.98153599144 298.9747345 L 250.14717687985 298.9645984 L 263.31281776826 298.95654035 L 276.47845865668 298.94206875 L 289.64409954509 298.91420195 L 302.8097404335 298.8651809 L 315.97538132192 298.7740457 L 329.14102221033 298.61487305 L 342.30666309874 298.3679439 L 355.47230398716 298.01259735 L 368.63794487557 297.5230297 L 381.80358576398 296.8967443 L 394.96922665239 296.0465378 L 408.13486754081 294.99233855 L 421.30050842922 293.568665 L 434.46614931763 291.5456609 L 447.63179020605 288.4310078 L 460.79743109446 282.4503201 L 473.96307198287 261.63682545 L 487.12871287129 76.48772820000002" class="highcharts-graph" stroke="#5cb85c" stroke-width="2" stroke-linejoin="round" stroke-linecap="round"></path></g><g class="highcharts-markers highcharts-series-3 highcharts-line-series highcharts-color-undefined " transform="translate(98,46) scale(1 1)" width="299" height="492" clip-path="none"></g><g class="highcharts-series highcharts-series-4 highcharts-line-series highcharts-color-undefined " transform="translate(98,46) scale(1 1)" width="299" height="492" clip-path="url(#highcharts-ql9vczr-148)"><path fill="none" d="M 26.331281776826 298.9052469 L 39.49692266524 298.9929436 L 52.662563553653 298.98422775 L 65.828204442066 298.99331735 L 78.993845330479 298.99415455 L 92.159486218892 298.99529075 L 105.32512710731 298.99487215 L 118.49076799572 298.99475255 L 131.65640888413 298.9950964 L 144.82204977254 298.9941097 L 157.98769066096 298.99262965 L 171.15333154937 298.99140375 L 184.31897243778 298.9891762 L 197.4846133262 298.9872028 L 210.65025421461 298.9849603 L 223.81589510302 298.97998195 L 236.98153599144 298.9748242 L 250.14717687985 298.96706515 L 263.31281776826 298.95794565 L 276.47845865668 298.9437282 L 289.64409954509 298.91764045 L 302.8097404335 298.87243165 L 315.97538132192 298.78628975 L 329.14102221033 298.63481635 L 342.30666309874 298.3979037 L 355.47230398716 298.06085595 L 368.63794487557 297.6108759 L 381.80358576398 297.01172475 L 394.96922665239 296.223785 L 408.13486754081 295.23040235 L 421.30050842922 293.8675753 L 434.46614931763 291.9895563 L 447.63179020605 289.0802863 L 460.79743109446 283.51600095 L 473.96307198287 263.74884185 L 487.12871287129 80.84623625" class="highcharts-graph" stroke="#5cb85c" stroke-width="2" stroke-linejoin="round" stroke-linecap="round"></path></g><g class="highcharts-markers highcharts-series-4 highcharts-line-series highcharts-color-undefined " transform="translate(98,46) scale(1 1)" width="299" height="492" clip-path="none"></g><g class="highcharts-series highcharts-series-5 highcharts-line-series highcharts-color-undefined " transform="translate(98,46) scale(1 1)" width="299" height="492" clip-path="url(#highcharts-ql9vczr-148)"><path fill="none" d="M 26.331281776826 298.8776492 L 39.49692266524 298.989834 L 52.662563553653 298.97947365 L 65.828204442066 298.99080575 L 78.993845330479 298.9928838 L 92.159486218892 298.993721 L 105.32512710731 298.99415455 L 118.49076799572 298.9944685 L 131.65640888413 298.99469275 L 144.82204977254 298.9936911 L 157.98769066096 298.992226 L 171.15333154937 298.9909403 L 184.31897243778 298.98778585 L 197.4846133262 298.9857975 L 210.65025421461 298.9829271 L 223.81589510302 298.97992215 L 236.98153599144 298.9751531 L 250.14717687985 298.96509175 L 263.31281776826 298.9552696 L 276.47845865668 298.94075315 L 289.64409954509 298.91620525 L 302.8097404335 298.8675729 L 315.97538132192 298.78186455 L 329.14102221033 298.63176655 L 342.30666309874 298.3931795 L 355.47230398716 298.05365005 L 368.63794487557 297.59073825 L 381.80358576398 297.01546225 L 394.96922665239 296.2149047 L 408.13486754081 295.2432743 L 421.30050842922 293.88248045 L 434.46614931763 292.0262137 L 447.63179020605 289.1176912 L 460.79743109446 283.5301885 L 473.96307198287 264.1517892 L 487.12871287129 79.26150635000002" class="highcharts-graph" stroke="#5cb85c" stroke-width="2" stroke-linejoin="round" stroke-linecap="round"></path></g><g class="highcharts-markers highcharts-series-5 highcharts-line-series highcharts-color-undefined " transform="translate(98,46) scale(1 1)" width="299" height="492" clip-path="none"></g></g><text x="330" text-anchor="middle" class="highcharts-title" style="color:#333333;font-size:18px;fill:#333333;width:536px;" y="24"><tspan>FastQC: Per Sequence Quality Scores</tspan></text><g class="highcharts-axis-labels highcharts-xaxis-labels "><text x="98" style="color:#666666;cursor:default;font-size:11px;fill:#666666;width:154px;text-overflow:clip;" text-anchor="middle" transform="translate(0,0)" y="364" opacity="1"><tspan>0</tspan></text><text x="229.65640888413168" style="color:#666666;cursor:default;font-size:11px;fill:#666666;width:154px;text-overflow:clip;" text-anchor="middle" transform="translate(0,0)" y="364" opacity="1"><tspan>10</tspan></text><text x="361.31281776826336" style="color:#666666;cursor:default;font-size:11px;fill:#666666;width:154px;text-overflow:clip;" text-anchor="middle" transform="translate(0,0)" y="364" opacity="1"><tspan>20</tspan></text><text x="492.969226652395" style="color:#666666;cursor:default;font-size:11px;fill:#666666;width:154px;text-overflow:clip;" text-anchor="middle" transform="translate(0,0)" y="364" opacity="1"><tspan>30</tspan></text></g><g class="highcharts-axis-labels highcharts-yaxis-labels "><text x="83" style="color:#666666;cursor:default;font-size:11px;fill:#666666;width:188px;text-overflow:clip;" text-anchor="end" transform="translate(0,0)" y="350" opacity="1"><tspan>0</tspan></text><text x="83" style="color:#666666;cursor:default;font-size:11px;fill:#666666;width:188px;text-overflow:clip;" text-anchor="end" transform="translate(0,0)" y="275" opacity="1"><tspan>5000000</tspan></text><text x="83" style="color:#666666;cursor:default;font-size:11px;fill:#666666;width:188px;text-overflow:clip;" text-anchor="end" transform="translate(0,0)" y="200" opacity="1"><tspan>10000000</tspan></text><text x="83" style="color:#666666;cursor:default;font-size:11px;fill:#666666;width:188px;text-overflow:clip;" text-anchor="end" transform="translate(0,0)" y="125" opacity="1"><tspan>15000000</tspan></text><text x="83" style="color:#666666;cursor:default;font-size:11px;fill:#666666;width:188px;text-overflow:clip;" text-anchor="end" transform="translate(0,0)" y="51" opacity="1"><tspan>20000000</tspan></text></g><text x="590" class="highcharts-credits" text-anchor="end" style="cursor:pointer;color:#999999;font-size:9px;fill:#999999;" y="395"><tspan>Created with MultiQC</tspan></text></svg>