<svg xmlns:xlink="http://www.w3.org/1999/xlink" version="1.1" class="highcharts-root" style="font-family:&quot;lucida grande&quot;, &quot;lucida sans unicode&quot;, arial, helvetica, sans-serif;font-size:12px;" xmlns="http://www.w3.org/2000/svg" width="600" height="400"><desc>Created with Highcharts 5.0.6</desc><defs><clipPath id="highcharts-ql9vczr-178"><rect x="0" y="0" width="513" height="281" fill="none"></rect></clipPath></defs><rect fill="#ffffff" class="highcharts-background" x="0" y="0" width="600" height="400" rx="0" ry="0"></rect><rect fill="none" class="highcharts-plot-background" x="77" y="46" width="513" height="281"></rect><g class="highcharts-grid highcharts-xaxis-grid "><path fill="none" class="highcharts-grid-line" d="M 108.5 46 L 108.5 327" opacity="1"></path><path fill="none" class="highcharts-grid-line" d="M 140.5 46 L 140.5 327" opacity="1"></path><path fill="none" class="highcharts-grid-line" d="M 172.5 46 L 172.5 327" opacity="1"></path><path fill="none" class="highcharts-grid-line" d="M 204.5 46 L 204.5 327" opacity="1"></path><path fill="none" class="highcharts-grid-line" d="M 236.5 46 L 236.5 327" opacity="1"></path><path fill="none" class="highcharts-grid-line" d="M 268.5 46 L 268.5 327" opacity="1"></path><path fill="none" class="highcharts-grid-line" d="M 300.5 46 L 300.5 327" opacity="1"></path><path fill="none" class="highcharts-grid-line" d="M 333.5 46 L 333.5 327" opacity="1"></path><path fill="none" class="highcharts-grid-line" d="M 365.5 46 L 365.5 327" opacity="1"></path><path fill="none" class="highcharts-grid-line" d="M 397.5 46 L 397.5 327" opacity="1"></path><path fill="none" class="highcharts-grid-line" d="M 429.5 46 L 429.5 327" opacity="1"></path><path fill="none" class="highcharts-grid-line" d="M 461.5 46 L 461.5 327" opacity="1"></path><path fill="none" class="highcharts-grid-line" d="M 493.5 46 L 493.5 327" opacity="1"></path><path fill="none" class="highcharts-grid-line" d="M 525.5 46 L 525.5 327" opacity="1"></path><path fill="none" class="highcharts-grid-line" d="M 557.5 46 L 557.5 327" opacity="1"></path><path fill="none" class="highcharts-grid-line" d="M 589.5 46 L 589.5 327" opacity="1"></path><path fill="none" class="highcharts-grid-line" d="M 76.5 46 L 76.5 327" opacity="1"></path></g><g class="highcharts-grid highcharts-yaxis-grid "><path fill="none" stroke="#e6e6e6" stroke-width="1" class="highcharts-grid-line" d="M 77 327.5 L 590 327.5" opacity="1"></path><path fill="none" stroke="#e6e6e6" stroke-width="1" class="highcharts-grid-line" d="M 77 257.5 L 590 257.5" opacity="1"></path><path fill="none" stroke="#e6e6e6" stroke-width="1" class="highcharts-grid-line" d="M 77 187.5 L 590 187.5" opacity="1"></path><path fill="none" stroke="#e6e6e6" stroke-width="1" class="highcharts-grid-line" d="M 77 116.5 L 590 116.5" opacity="1"></path><path fill="none" stroke="#e6e6e6" stroke-width="1" class="highcharts-grid-line" d="M 77 45.5 L 590 45.5" opacity="1"></path></g><rect fill="none" class="highcharts-plot-border" x="77" y="46" width="513" height="281"></rect><g class="highcharts-axis highcharts-xaxis "><path fill="none" class="highcharts-tick" stroke="#ccd6eb" stroke-width="1" d="M 108.5 327 L 108.5 337" opacity="1"></path><path fill="none" class="highcharts-tick" stroke="#ccd6eb" stroke-width="1" d="M 140.5 327 L 140.5 337" opacity="1"></path><path fill="none" class="highcharts-tick" stroke="#ccd6eb" stroke-width="1" d="M 172.5 327 L 172.5 337" opacity="1"></path><path fill="none" class="highcharts-tick" stroke="#ccd6eb" stroke-width="1" d="M 204.5 327 L 204.5 337" opacity="1"></path><path fill="none" class="highcharts-tick" stroke="#ccd6eb" stroke-width="1" d="M 236.5 327 L 236.5 337" opacity="1"></path><path fill="none" class="highcharts-tick" stroke="#ccd6eb" stroke-width="1" d="M 268.5 327 L 268.5 337" opacity="1"></path><path fill="none" class="highcharts-tick" stroke="#ccd6eb" stroke-width="1" d="M 300.5 327 L 300.5 337" opacity="1"></path><path fill="none" class="highcharts-tick" stroke="#ccd6eb" stroke-width="1" d="M 333.5 327 L 333.5 337" opacity="1"></path><path fill="none" class="highcharts-tick" stroke="#ccd6eb" stroke-width="1" d="M 365.5 327 L 365.5 337" opacity="1"></path><path fill="none" class="highcharts-tick" stroke="#ccd6eb" stroke-width="1" d="M 397.5 327 L 397.5 337" opacity="1"></path><path fill="none" class="highcharts-tick" stroke="#ccd6eb" stroke-width="1" d="M 429.5 327 L 429.5 337" opacity="1"></path><path fill="none" class="highcharts-tick" stroke="#ccd6eb" stroke-width="1" d="M 461.5 327 L 461.5 337" opacity="1"></path><path fill="none" class="highcharts-tick" stroke="#ccd6eb" stroke-width="1" d="M 493.5 327 L 493.5 337" opacity="1"></path><path fill="none" class="highcharts-tick" stroke="#ccd6eb" stroke-width="1" d="M 525.5 327 L 525.5 337" opacity="1"></path><path fill="none" class="highcharts-tick" stroke="#ccd6eb" stroke-width="1" d="M 557.5 327 L 557.5 337" opacity="1"></path><path fill="none" class="highcharts-tick" stroke="#ccd6eb" stroke-width="1" d="M 590.5 327 L 590.5 337" opacity="1"></path><path fill="none" class="highcharts-tick" stroke="#ccd6eb" stroke-width="1" d="M 76.5 327 L 76.5 337" opacity="1"></path><text x="333.5" text-anchor="middle" transform="translate(0,0)" class="highcharts-axis-title" style="color:#666666;fill:#666666;" y="382.8062860630869"><tspan>Sequence Duplication Level</tspan></text><path fill="none" class="highcharts-axis-line" stroke="#ccd6eb" stroke-width="1" d="M 77 327.5 L 590 327.5"></path></g><g class="highcharts-axis highcharts-yaxis "><text x="23.866666793823242" text-anchor="middle" transform="translate(0,0) rotate(270 23.866666793823242 186.5)" class="highcharts-axis-title" style="color:#666666;fill:#666666;" y="186.5"><tspan>% of Library</tspan></text><path fill="none" class="highcharts-axis-line" d="M 77 46 L 77 327"></path></g><g class="highcharts-series-group"><g class="highcharts-series highcharts-series-0 highcharts-line-series highcharts-color-undefined " transform="translate(77,46) scale(1 1)" width="281" height="513" clip-path="url(#highcharts-ql9vczr-178)"><path fill="none" d="M 16.03125 183.10493501653286 L 48.09375 247.45792733647954 L 80.15625 261.1659368894711 L 112.21875 267.52706212356986 L 144.28125 270.6019817097249 L 176.34375 272.9839980064842 L 208.40625 274.4113098939978 L 240.46875 275.66986235762573 L 272.53125 276.3892812905853 L 304.59375 233.85657781367655 L 336.65625 268.46636633800773 L 368.71875 263.8825614829693 L 400.78125 278.45445831500336 L 432.84375 279.0277414258712 L 464.90625 281 L 496.96875 281" class="highcharts-graph" stroke="#d9534f" stroke-width="2" stroke-linejoin="round" stroke-linecap="round"></path></g><g class="highcharts-markers highcharts-series-0 highcharts-line-series highcharts-color-undefined " transform="translate(77,46) scale(1 1)" width="281" height="513" clip-path="none"></g><g class="highcharts-series highcharts-series-1 highcharts-line-series highcharts-color-undefined " transform="translate(77,46) scale(1 1)" width="281" height="513" clip-path="url(#highcharts-ql9vczr-178)"><path fill="none" d="M 16.03125 184.9635343706555 L 48.09375 244.520821314212 L 80.15625 260.12200032550686 L 112.21875 267.3581998093454 L 144.28125 270.904818006442 L 176.34375 273.0491642913281 L 208.40625 274.68930407428803 L 240.46875 275.7660932815316 L 272.53125 276.73728354079196 L 304.59375 234.44775011594032 L 336.65625 268.9562307419541 L 368.71875 264.5014801228168 L 400.78125 278.4242708050394 L 432.84375 278.55904920014774 L 464.90625 281 L 496.96875 281" class="highcharts-graph" stroke="#d9534f" stroke-width="2" stroke-linejoin="round" stroke-linecap="round"></path></g><g class="highcharts-markers highcharts-series-1 highcharts-line-series highcharts-color-undefined " transform="translate(77,46) scale(1 1)" width="281" height="513" clip-path="none"></g><g class="highcharts-series highcharts-series-2 highcharts-line-series highcharts-color-undefined " transform="translate(77,46) scale(1 1)" width="281" height="513" clip-path="url(#highcharts-ql9vczr-178)"><path fill="none" d="M 16.03125 187.85521548930342 L 48.09375 248.65801054841583 L 80.15625 261.5150578463105 L 112.21875 267.1614666245493 L 144.28125 270.4925850044003 L 176.34375 272.7691617958208 L 208.40625 274.1969237349489 L 240.46875 275.61476404259207 L 272.53125 276.37095533730053 L 304.59375 231.8865652595003 L 336.65625 267.7962444603751 L 368.71875 262.2717638957629 L 400.78125 277.84122887314675 L 432.84375 278.57005708757396 L 464.90625 281 L 496.96875 281" class="highcharts-graph" stroke="#d9534f" stroke-width="2" stroke-linejoin="round" stroke-linecap="round"></path></g><g class="highcharts-markers highcharts-series-2 highcharts-line-series highcharts-color-undefined " transform="translate(77,46) scale(1 1)" width="281" height="513" clip-path="none"></g><g class="highcharts-series highcharts-series-3 highcharts-line-series highcharts-color-undefined " transform="translate(77,46) scale(1 1)" width="281" height="513" clip-path="url(#highcharts-ql9vczr-178)"><path fill="none" d="M 16.03125 188.53232331366414 L 48.09375 249.2340363674751 L 80.15625 261.6953084478513 L 112.21875 267.68813477835016 L 144.28125 270.8779110737476 L 176.34375 273.29412134333603 L 208.40625 274.74826782249534 L 240.46875 275.7442865211194 L 272.53125 276.294849254509 L 304.59375 229.9259751657951 L 336.65625 266.5730985345974 L 368.71875 260.7023291962881 L 400.78125 278.1886642236287 L 432.84375 279.5006939571424 L 464.90625 281 L 496.96875 281" class="highcharts-graph" stroke="#d9534f" stroke-width="2" stroke-linejoin="round" stroke-linecap="round"></path></g><g class="highcharts-markers highcharts-series-3 highcharts-line-series highcharts-color-undefined " transform="translate(77,46) scale(1 1)" width="281" height="513" clip-path="none"></g><g class="highcharts-series highcharts-series-4 highcharts-line-series highcharts-color-undefined " transform="translate(77,46) scale(1 1)" width="281" height="513" clip-path="url(#highcharts-ql9vczr-178)"><path fill="none" d="M 16.03125 186.67231255566168 L 48.09375 249.17277736468253 L 80.15625 262.2935221070031 L 112.21875 267.7824321704951 L 144.28125 271.17169296844463 L 176.34375 273.3283172853719 L 208.40625 274.62914300574886 L 240.46875 275.75379724881583 L 272.53125 276.4066990356466 L 304.59375 230.497277645149 L 336.65625 266.2217751522984 L 368.71875 261.3557349615301 L 400.78125 278.28356061622986 L 432.84375 279.43095788292226 L 464.90625 281 L 496.96875 281" class="highcharts-graph" stroke="#d9534f" stroke-width="2" stroke-linejoin="round" stroke-linecap="round"></path></g><g class="highcharts-markers highcharts-series-4 highcharts-line-series highcharts-color-undefined " transform="translate(77,46) scale(1 1)" width="281" height="513" clip-path="none"></g><g class="highcharts-series highcharts-series-5 highcharts-line-series highcharts-color-undefined " transform="translate(77,46) scale(1 1)" width="281" height="513" clip-path="url(#highcharts-ql9vczr-178)"><path fill="none" d="M 16.03125 202.8629742943891 L 48.09375 249.66274191183112 L 80.15625 262.9014388314497 L 112.21875 267.9995865655153 L 144.28125 271.3634339941396 L 176.34375 273.0832747017713 L 208.40625 274.5167664533299 L 240.46875 275.42284204645915 L 272.53125 276.1181331441933 L 304.59375 224.54668086464534 L 336.65625 264.9298217228995 L 368.71875 256.530120383208 L 400.78125 275.9525799863577 L 432.84375 277.3422570138477 L 464.90625 280.7673480859633 L 496.96875 281" class="highcharts-graph" stroke="#d9534f" stroke-width="2" stroke-linejoin="round" stroke-linecap="round"></path></g><g class="highcharts-markers highcharts-series-5 highcharts-line-series highcharts-color-undefined " transform="translate(77,46) scale(1 1)" width="281" height="513" clip-path="none"></g></g><text x="330" text-anchor="middle" class="highcharts-title" style="color:#333333;font-size:18px;fill:#333333;width:536px;" y="24"><tspan>FastQC: Sequence Duplication Levels</tspan></text><g class="highcharts-axis-labels highcharts-xaxis-labels "><text x="95.62397486435067" style="color:#666666;cursor:default;font-size:11px;fill:#666666;width:400px;text-overflow:ellipsis;" text-anchor="end" transform="translate(0,0) rotate(-45 95.62397486435067 343)" y="343" opacity="1"><tspan>1</tspan></text><text x="127.68647486435069" style="color:#666666;cursor:default;font-size:11px;fill:#666666;width:400px;text-overflow:ellipsis;" text-anchor="end" transform="translate(0,0) rotate(-45 127.68647486435069 343)" y="343" opacity="1"><tspan>2</tspan></text><text x="159.74897486435069" style="color:#666666;cursor:default;font-size:11px;fill:#666666;width:400px;text-overflow:ellipsis;" text-anchor="end" transform="translate(0,0) rotate(-45 159.74897486435069 343)" y="343" opacity="1"><tspan>3</tspan></text><text x="191.81147486435069" style="color:#666666;cursor:default;font-size:11px;fill:#666666;width:400px;text-overflow:ellipsis;" text-anchor="end" transform="translate(0,0) rotate(-45 191.81147486435069 343)" y="343" opacity="1"><tspan>4</tspan></text><text x="223.87397486435069" style="color:#666666;cursor:default;font-size:11px;fill:#666666;width:400px;text-overflow:ellipsis;" text-anchor="end" transform="translate(0,0) rotate(-45 223.87397486435069 343)" y="343" opacity="1"><tspan>5</tspan></text><text x="255.93647486435066" style="color:#666666;cursor:default;font-size:11px;fill:#666666;width:400px;text-overflow:ellipsis;" text-anchor="end" transform="translate(0,0) rotate(-45 255.93647486435066 343)" y="343" opacity="1"><tspan>6</tspan></text><text x="287.99897486435066" style="color:#666666;cursor:default;font-size:11px;fill:#666666;width:400px;text-overflow:ellipsis;" text-anchor="end" transform="translate(0,0) rotate(-45 287.99897486435066 343)" y="343" opacity="1"><tspan>7</tspan></text><text x="320.06147486435066" style="color:#666666;cursor:default;font-size:11px;fill:#666666;width:400px;text-overflow:ellipsis;" text-anchor="end" transform="translate(0,0) rotate(-45 320.06147486435066 343)" y="343" opacity="1"><tspan>8</tspan></text><text x="352.12397486435066" style="color:#666666;cursor:default;font-size:11px;fill:#666666;width:400px;text-overflow:ellipsis;" text-anchor="end" transform="translate(0,0) rotate(-45 352.12397486435066 343)" y="343" opacity="1"><tspan>9</tspan></text><text x="384.18647486435066" style="color:#666666;cursor:default;font-size:11px;fill:#666666;width:400px;text-overflow:ellipsis;" text-anchor="end" transform="translate(0,0) rotate(-45 384.18647486435066 343)" y="343" opacity="1"><tspan>&gt;10</tspan></text><text x="416.24897486435066" style="color:#666666;cursor:default;font-size:11px;fill:#666666;width:400px;text-overflow:ellipsis;" text-anchor="end" transform="translate(0,0) rotate(-45 416.24897486435066 343)" y="343" opacity="1"><tspan>&gt;50</tspan></text><text x="448.31147486435066" style="color:#666666;cursor:default;font-size:11px;fill:#666666;width:400px;text-overflow:ellipsis;" text-anchor="end" transform="translate(0,0) rotate(-45 448.31147486435066 343)" y="343" opacity="1"><tspan>&gt;100</tspan></text><text x="480.37397486435066" style="color:#666666;cursor:default;font-size:11px;fill:#666666;width:400px;text-overflow:ellipsis;" text-anchor="end" transform="translate(0,0) rotate(-45 480.37397486435066 343)" y="343" opacity="1"><tspan>&gt;500</tspan></text><text x="512.4364748643507" style="color:#666666;cursor:default;font-size:11px;fill:#666666;width:400px;text-overflow:ellipsis;" text-anchor="end" transform="translate(0,0) rotate(-45 512.4364748643507 343)" y="343" opacity="1"><tspan>&gt;1k</tspan></text><text x="544.4989748643507" style="color:#666666;cursor:default;font-size:11px;fill:#666666;width:400px;text-overflow:ellipsis;" text-anchor="end" transform="translate(0,0) rotate(-45 544.4989748643507 343)" y="343" opacity="1"><tspan>&gt;5k</tspan></text><text x="576.5614748643507" style="color:#666666;cursor:default;font-size:11px;fill:#666666;width:400px;text-overflow:ellipsis;" text-anchor="end" transform="translate(0,0) rotate(-45 576.5614748643507 343)" y="343" opacity="1"><tspan>&gt;10k+</tspan></text></g><g class="highcharts-axis-labels highcharts-yaxis-labels "><text x="62" style="color:#666666;cursor:default;font-size:11px;fill:#666666;width:188px;text-overflow:clip;" text-anchor="end" transform="translate(0,0)" y="332" opacity="1"><tspan>0%</tspan></text><text x="62" style="color:#666666;cursor:default;font-size:11px;fill:#666666;width:188px;text-overflow:clip;" text-anchor="end" transform="translate(0,0)" y="261" opacity="1"><tspan>25%</tspan></text><text x="62" style="color:#666666;cursor:default;font-size:11px;fill:#666666;width:188px;text-overflow:clip;" text-anchor="end" transform="translate(0,0)" y="191" opacity="1"><tspan>50%</tspan></text><text x="62" style="color:#666666;cursor:default;font-size:11px;fill:#666666;width:188px;text-overflow:clip;" text-anchor="end" transform="translate(0,0)" y="121" opacity="1"><tspan>75%</tspan></text><text x="62" style="color:#666666;cursor:default;font-size:11px;fill:#666666;width:188px;text-overflow:clip;" text-anchor="end" transform="translate(0,0)" y="51" opacity="1"><tspan>100%</tspan></text></g><text x="590" class="highcharts-credits" text-anchor="end" style="cursor:pointer;color:#999999;font-size:9px;fill:#999999;" y="395"><tspan>Created with MultiQC</tspan></text></svg>