<svg xmlns:xlink="http://www.w3.org/1999/xlink" version="1.1" class="highcharts-root" style="font-family:&quot;lucida grande&quot;, &quot;lucida sans unicode&quot;, arial, helvetica, sans-serif;font-size:12px;" xmlns="http://www.w3.org/2000/svg" width="600" height="400"><desc>Created with Highcharts 5.0.6</desc><defs><clipPath id="highcharts-ql9vczr-138"><rect x="0" y="0" width="529" height="299" fill="none"></rect></clipPath></defs><rect fill="#ffffff" class="highcharts-background" x="0" y="0" width="600" height="400" rx="0" ry="0"></rect><rect fill="none" class="highcharts-plot-background" x="61" y="46" width="529" height="299"></rect><g class="highcharts-plot-bands-0"><path fill="#c3e6c3" class="highcharts-plot-band " d="M 61 136.5 L 590 136.5 590 46.5 61 46.5 z"></path><path fill="#e6dcc3" class="highcharts-plot-band " d="M 61 196.5 L 590 196.5 590 136.5 61 136.5 z"></path><path fill="#e6c3c3" class="highcharts-plot-band " d="M 61 345.5 L 590 345.5 590 196.5 61 196.5 z"></path></g><g class="highcharts-grid highcharts-xaxis-grid "><path fill="none" class="highcharts-grid-line" d="M 138.5 46 L 138.5 345" opacity="1"></path><path fill="none" class="highcharts-grid-line" d="M 219.5 46 L 219.5 345" opacity="1"></path><path fill="none" class="highcharts-grid-line" d="M 300.5 46 L 300.5 345" opacity="1"></path><path fill="none" class="highcharts-grid-line" d="M 381.5 46 L 381.5 345" opacity="1"></path><path fill="none" class="highcharts-grid-line" d="M 462.5 46 L 462.5 345" opacity="1"></path><path fill="none" class="highcharts-grid-line" d="M 543.5 46 L 543.5 345" opacity="1"></path></g><g class="highcharts-grid highcharts-yaxis-grid "><path fill="none" stroke="#e6e6e6" stroke-width="1" class="highcharts-grid-line" d="M 61 345.5 L 590 345.5" opacity="1"></path><path fill="none" stroke="#e6e6e6" stroke-width="1" class="highcharts-grid-line" d="M 61 270.5 L 590 270.5" opacity="1"></path><path fill="none" stroke="#e6e6e6" stroke-width="1" class="highcharts-grid-line" d="M 61 196.5 L 590 196.5" opacity="1"></path><path fill="none" stroke="#e6e6e6" stroke-width="1" class="highcharts-grid-line" d="M 61 121.5 L 590 121.5" opacity="1"></path><path fill="none" stroke="#e6e6e6" stroke-width="1" class="highcharts-grid-line" d="M 61 45.5 L 590 45.5" opacity="1"></path></g><rect fill="none" class="highcharts-plot-border" x="61" y="46" width="529" height="299"></rect><g class="highcharts-axis highcharts-xaxis "><path fill="none" class="highcharts-tick" stroke="#ccd6eb" stroke-width="1" d="M 138.5 345 L 138.5 355" opacity="1"></path><path fill="none" class="highcharts-tick" stroke="#ccd6eb" stroke-width="1" d="M 219.5 345 L 219.5 355" opacity="1"></path><path fill="none" class="highcharts-tick" stroke="#ccd6eb" stroke-width="1" d="M 300.5 345 L 300.5 355" opacity="1"></path><path fill="none" class="highcharts-tick" stroke="#ccd6eb" stroke-width="1" d="M 381.5 345 L 381.5 355" opacity="1"></path><path fill="none" class="highcharts-tick" stroke="#ccd6eb" stroke-width="1" d="M 462.5 345 L 462.5 355" opacity="1"></path><path fill="none" class="highcharts-tick" stroke="#ccd6eb" stroke-width="1" d="M 543.5 345 L 543.5 355" opacity="1"></path><text x="325.5" text-anchor="middle" transform="translate(0,0)" class="highcharts-axis-title" style="color:#666666;fill:#666666;" y="383"><tspan>Position (bp)</tspan></text><path fill="none" class="highcharts-axis-line" stroke="#ccd6eb" stroke-width="1" d="M 61 345.5 L 590 345.5"></path></g><g class="highcharts-axis highcharts-yaxis "><text x="23.766666412353516" text-anchor="middle" transform="translate(0,0) rotate(270 23.766666412353516 195.5)" class="highcharts-axis-title" style="color:#666666;fill:#666666;" y="195.5"><tspan>Phred Score</tspan></text><path fill="none" class="highcharts-axis-line" d="M 61 46 L 61 345"></path></g><g class="highcharts-series-group"><g class="highcharts-series highcharts-series-0 highcharts-line-series highcharts-color-undefined " transform="translate(61,46) scale(1 1)" width="299" height="529" clip-path="url(#highcharts-ql9vczr-138)"><path fill="none" d="M 5.1862745098039 51.50641197310409 L 13.289828431373 52.1787256405012 L 21.393382352941 51.83404409860111 L 29.49693627451 52.16904636027073 L 37.600490196078 52.01784948646812 L 45.704044117647 25.752071070580655 L 53.807598039216 24.867584959724184 L 61.911151960784 24.334992570153588 L 70.014705882353 24.054690460416452 L 78.118259803922 23.77670457800116 L 86.22181372549 23.19854732205482 L 94.325367647059 23.215670404403227 L 102.42892156863 23.20456703394933 L 110.5324754902 23.164861797702088 L 118.63602941176 23.05040298086493 L 126.73958333333 22.94499445041663 L 134.8431372549 22.847101263052593 L 142.94669117647 22.780969431380697 L 151.05024509804 22.678818494037444 L 159.15379901961 22.653316618725512 L 167.25735294118 22.61234879067365 L 175.36090686275 22.562764880314887 L 183.46446078431 22.527011751206032 L 191.56801470588 22.491180352030142 L 199.67156862745 22.35991011645973 L 207.77512254902 22.616681977414203 L 215.87867647059 22.642838346318 L 223.98223039216 22.64410483391788 L 232.08578431373 22.63871836582325 L 240.18933823529 22.58379757021777 L 248.29289215686 22.515694466179866 L 256.39644607843 22.517772695832036 L 264.5 22.4732186112264 L 272.60355392157 23.142932366579146 L 280.70710784314 22.628165010817497 L 288.81066176471 22.49402640749787 L 296.91421568627 22.32620192566236 L 305.01776960784 22.19695821191698 L 313.12132352941 22.23203984760039 L 321.22487745098 22.20409070458294 L 329.32843137255 22.3731030497882 L 337.43198529412 22.189245954094133 L 345.53553921569 22.52564822288963 L 353.63909313725 22.284894455102517 L 361.74264705882 22.08714955788355 L 369.84620098039 22.00909978039988 L 377.94975490196 22.029256978874685 L 386.05330882353 22.02678810721403 L 394.1568627451 22.027743639525113 L 402.26041666667 22.019887237280216 L 410.36397058824 22.292216070916822 L 418.4675245098 22.08015837633394 L 426.57107843137 22.111710421575538 L 434.67463235294 22.14387729413062 L 442.77818627451 22.173726522711036 L 450.88174019608 22.17534256938842 L 458.98529411765 22.269071860021086 L 467.08884803922 22.282690143351545 L 475.19240196078 22.324974396014397 L 483.29595588235 22.387283035952294 L 491.39950980392 22.48708799626496 L 499.50306372549 22.537621772323632 L 507.60661764706 22.624272757259803 L 515.71017156863 22.900424074303885 L 523.8137254902 26.10702440774321" class="highcharts-graph" stroke="#5cb85c" stroke-width="2" stroke-linejoin="round" stroke-linecap="round"></path></g><g class="highcharts-markers highcharts-series-0 highcharts-line-series highcharts-color-undefined " transform="translate(61,46) scale(1 1)" width="299" height="529" clip-path="none"></g><g class="highcharts-series highcharts-series-1 highcharts-line-series highcharts-color-undefined " transform="translate(61,46) scale(1 1)" width="299" height="529" clip-path="url(#highcharts-ql9vczr-138)"><path fill="none" d="M 5.1862745098039 51.78636712922929 L 13.289828431373 51.43323103993248 L 21.393382352941 51.60952376204443 L 29.49693627451 52.02164801123487 L 37.600490196078 51.925100267561646 L 45.704044117647 25.379963478809145 L 53.807598039216 24.495554922294048 L 61.911151960784 23.872788583857073 L 70.014705882353 23.457977304391022 L 78.118259803922 23.529434167364684 L 86.22181372549 23.00174751262915 L 94.325367647059 23.03727907501826 L 102.42892156863 23.10424104628811 L 110.5324754902 23.0289433971559 L 118.63602941176 22.94578324246362 L 126.73958333333 22.87703743613116 L 134.8431372549 22.755368411050938 L 142.94669117647 22.71325019214862 L 151.05024509804 22.651099378007245 L 159.15379901961 22.6206285527486 L 167.25735294118 22.609305760207633 L 175.36090686275 22.60276764675956 L 183.46446078431 22.50986112331026 L 191.56801470588 22.512576102623427 L 199.67156862745 22.429356127184064 L 207.77512254902 22.65119107046371 L 215.87867647059 22.692163378826933 L 223.98223039216 22.70858564488367 L 232.08578431373 22.665790765072586 L 240.18933823529 22.61665390541026 L 248.29289215686 22.572695953370328 L 256.39644607843 22.53332997916459 L 264.5 22.494523476043582 L 272.60355392157 23.211951243286933 L 280.70710784314 22.67464766796826 L 288.81066176471 22.539726386088944 L 296.91421568627 22.401401205637796 L 305.01776960784 22.231629435284162 L 313.12132352941 22.28013278342894 L 321.22487745098 22.295100228531737 L 329.32843137255 22.44766863077956 L 337.43198529412 22.25776129504851 L 345.53553921569 22.600664113934386 L 353.63909313725 22.32316841723008 L 361.74264705882 22.142667158465656 L 369.84620098039 22.087962556325294 L 377.94975490196 22.075651250456644 L 386.05330882353 22.050745225672074 L 394.1568627451 22.09836646296543 L 402.26041666667 22.067130226345398 L 410.36397058824 22.34400270854593 L 418.4675245098 22.15557274913249 L 426.57107843137 22.16216430898561 L 434.67463235294 22.193815858496748 L 442.77818627451 22.244139326419486 L 450.88174019608 22.233605971605527 L 458.98529411765 22.3271200188708 L 467.08884803922 22.359017716045912 L 475.19240196078 22.388060688720202 L 483.29595588235 22.444649644391404 L 491.39950980392 22.555897601141794 L 499.50306372549 22.59720676895745 L 507.60661764706 22.682688164767455 L 515.71017156863 22.95535603298748 L 523.8137254902 26.101138378418625" class="highcharts-graph" stroke="#5cb85c" stroke-width="2" stroke-linejoin="round" stroke-linecap="round"></path></g><g class="highcharts-markers highcharts-series-1 highcharts-line-series highcharts-color-undefined " transform="translate(61,46) scale(1 1)" width="299" height="529" clip-path="none"></g><g class="highcharts-series highcharts-series-2 highcharts-line-series highcharts-color-undefined " transform="translate(61,46) scale(1 1)" width="299" height="529" clip-path="url(#highcharts-ql9vczr-138)"><path fill="none" d="M 5.1862745098039 51.4075215921882 L 13.289828431373 51.85093946379217 L 21.393382352941 51.61631164719094 L 29.49693627451 51.97060942100933 L 37.600490196078 51.81232264579842 L 45.704044117647 25.449405251445228 L 53.807598039216 24.564999092149094 L 61.911151960784 24.071925828539804 L 70.014705882353 23.747988295611606 L 78.118259803922 23.562425432793475 L 86.22181372549 22.927897353987873 L 94.325367647059 22.926089657227067 L 102.42892156863 22.95791689814945 L 110.5324754902 22.902038318114023 L 118.63602941176 22.78255520453274 L 126.73958333333 22.686604831062027 L 134.8431372549 22.597084838564 L 142.94669117647 22.5345171947003 L 151.05024509804 22.436652444769095 L 159.15379901961 22.412939644124947 L 167.25735294118 22.377291666675262 L 175.36090686275 22.348904691906284 L 183.46446078431 22.29194574866949 L 191.56801470588 22.26226258471712 L 199.67156862745 22.140224091508742 L 207.77512254902 22.374732587174208 L 215.87867647059 22.402033032285146 L 223.98223039216 22.40395665843056 L 232.08578431373 22.385107958775393 L 240.18933823529 22.340786860077003 L 248.29289215686 22.280506663299832 L 256.39644607843 22.258722113643557 L 264.5 22.21606133339253 L 272.60355392157 22.920083220147603 L 280.70710784314 22.388456344725 L 288.81066176471 22.254635911158346 L 296.91421568627 22.104515066138504 L 305.01776960784 21.969711391062333 L 313.12132352941 21.99180734677833 L 321.22487745098 21.9752494857608 L 329.32843137255 22.15075948265951 L 337.43198529412 21.963161072508115 L 345.53553921569 22.319525225942925 L 353.63909313725 22.05594558714546 L 361.74264705882 21.861866231076988 L 369.84620098039 21.788297320264178 L 377.94975490196 21.78701438896252 L 386.05330882353 21.776137684437344 L 394.1568627451 21.811032737532685 L 402.26041666667 21.79110922448706 L 410.36397058824 22.073625743269417 L 418.4675245098 21.864231067194225 L 426.57107843137 21.888660718421477 L 434.67463235294 21.92334210379454 L 442.77818627451 21.959894700431732 L 450.88174019608 21.963334349939373 L 458.98529411765 22.046225401561117 L 467.08884803922 22.06939586234472 L 475.19240196078 22.1089160662346 L 483.29595588235 22.17589395987943 L 491.39950980392 22.26583697130212 L 499.50306372549 22.325427758228216 L 507.60661764706 22.40005853287255 L 515.71017156863 22.660493895434797 L 523.8137254902 25.772328402257926" class="highcharts-graph" stroke="#5cb85c" stroke-width="2" stroke-linejoin="round" stroke-linecap="round"></path></g><g class="highcharts-markers highcharts-series-2 highcharts-line-series highcharts-color-undefined " transform="translate(61,46) scale(1 1)" width="299" height="529" clip-path="none"></g><g class="highcharts-series highcharts-series-3 highcharts-line-series highcharts-color-undefined " transform="translate(61,46) scale(1 1)" width="299" height="529" clip-path="url(#highcharts-ql9vczr-138)"><path fill="none" d="M 5.1862745098039 51.68786200684991 L 13.289828431373 52.19791717953524 L 21.393382352941 51.94762057311641 L 29.49693627451 52.30071892815943 L 37.600490196078 52.143509929508696 L 45.704044117647 25.77830401701624 L 53.807598039216 24.77432041528931 L 61.911151960784 24.20991649001087 L 70.014705882353 23.843029148509004 L 78.118259803922 23.695346670897663 L 86.22181372549 23.07578893993383 L 94.325367647059 23.07476487815819 L 102.42892156863 23.101468956492 L 110.5324754902 23.065863994302504 L 118.63602941176 22.94630308770917 L 126.73958333333 22.87387720143778 L 134.8431372549 22.786740280748575 L 142.94669117647 22.72422614251684 L 151.05024509804 22.625585915570298 L 159.15379901961 22.603227055122602 L 167.25735294118 22.575095140046187 L 175.36090686275 22.545571414085657 L 183.46446078431 22.492045549167983 L 191.56801470588 22.48084757097746 L 199.67156862745 22.369575108647837 L 207.77512254902 22.615623874005507 L 215.87867647059 22.64215067658091 L 223.98223039216 22.659034676633382 L 232.08578431373 22.64352001589009 L 240.18933823529 22.5924267881407 L 248.29289215686 22.53900935748976 L 256.39644607843 22.504252251392472 L 264.5 22.465435994125926 L 272.60355392157 23.169193646593726 L 280.70710784314 22.63955788485424 L 288.81066176471 22.49585180594545 L 296.91421568627 22.35084451583583 L 305.01776960784 22.211123396229596 L 313.12132352941 22.243329800216884 L 321.22487745098 22.22558438978882 L 329.32843137255 22.390991589711575 L 337.43198529412 22.214068599323127 L 345.53553921569 22.565657078540198 L 353.63909313725 22.30403943530581 L 361.74264705882 22.12536187860792 L 369.84620098039 22.043158360363577 L 377.94975490196 22.047774663916528 L 386.05330882353 22.038506387643906 L 394.1568627451 22.07363659322482 L 402.26041666667 22.051832745010756 L 410.36397058824 22.344988708740402 L 418.4675245098 22.134333387413733 L 426.57107843137 22.151063653357767 L 434.67463235294 22.192825113717845 L 442.77818627451 22.228051626048796 L 450.88174019608 22.240763760365212 L 458.98529411765 22.33017637388923 L 467.08884803922 22.36134302166755 L 475.19240196078 22.393889352813403 L 483.29595588235 22.467373186568864 L 491.39950980392 22.57905513093209 L 499.50306372549 22.640234885637994 L 507.60661764706 22.72740890226055 L 515.71017156863 22.998516683984292 L 523.8137254902 26.165972571723103" class="highcharts-graph" stroke="#5cb85c" stroke-width="2" stroke-linejoin="round" stroke-linecap="round"></path></g><g class="highcharts-markers highcharts-series-3 highcharts-line-series highcharts-color-undefined " transform="translate(61,46) scale(1 1)" width="299" height="529" clip-path="none"></g><g class="highcharts-series highcharts-series-4 highcharts-line-series highcharts-color-undefined " transform="translate(61,46) scale(1 1)" width="299" height="529" clip-path="url(#highcharts-ql9vczr-138)"><path fill="none" d="M 5.1862745098039 51.45711376393743 L 13.289828431373 51.960664945942455 L 21.393382352941 51.69816135176447 L 29.49693627451 52.05284158946603 L 37.600490196078 51.8949316550966 L 45.704044117647 25.548653519620416 L 53.807598039216 24.62210219141076 L 61.911151960784 24.08389872540937 L 70.014705882353 23.733319824542548 L 78.118259803922 23.55515240767204 L 86.22181372549 22.948546211341238 L 94.325367647059 22.937734466097083 L 102.42892156863 22.961608133579773 L 110.5324754902 22.91736986736737 L 118.63602941176 22.80140421867236 L 126.73958333333 22.708200952600635 L 134.8431372549 22.625142439999138 L 142.94669117647 22.554329410477976 L 151.05024509804 22.463194113382826 L 159.15379901961 22.439367930413823 L 167.25735294118 22.400965842222945 L 175.36090686275 22.365500800038546 L 183.46446078431 22.315579116061997 L 191.56801470588 22.290143244888156 L 199.67156862745 22.168132707169605 L 207.77512254902 22.41169586993192 L 215.87867647059 22.425050797386746 L 223.98223039216 22.438943514566574 L 232.08578431373 22.42758367288127 L 240.18933823529 22.39223274076852 L 248.29289215686 22.31755690127227 L 256.39644607843 22.29802898703599 L 264.5 22.2552782008226 L 272.60355392157 22.95261147466948 L 280.70710784314 22.421198662224697 L 288.81066176471 22.27959579329388 L 296.91421568627 22.12780694402818 L 305.01776960784 22.000873476958645 L 313.12132352941 22.03079571443493 L 321.22487745098 22.01894115037436 L 329.32843137255 22.187604670661017 L 337.43198529412 22.000147589663868 L 345.53553921569 22.346123069380496 L 353.63909313725 22.0837085546778 L 361.74264705882 21.896335031700914 L 369.84620098039 21.826185312983682 L 377.94975490196 21.820485330854183 L 386.05330882353 21.80573826052472 L 394.1568627451 21.84318808176255 L 402.26041666667 21.826753654760125 L 410.36397058824 22.114747230371677 L 418.4675245098 21.899614039825508 L 426.57107843137 21.915613008070522 L 434.67463235294 21.9566046586948 L 442.77818627451 21.9950387713252 L 450.88174019608 22.004661931338774 L 458.98529411765 22.085681554627058 L 467.08884803922 22.1083036922912 L 475.19240196078 22.14939509720398 L 483.29595588235 22.210337237426813 L 491.39950980392 22.31787420089097 L 499.50306372549 22.372404459375844 L 507.60661764706 22.454898679267956 L 515.71017156863 22.73025511658534 L 523.8137254902 25.837872490163193" class="highcharts-graph" stroke="#5cb85c" stroke-width="2" stroke-linejoin="round" stroke-linecap="round"></path></g><g class="highcharts-markers highcharts-series-4 highcharts-line-series highcharts-color-undefined " transform="translate(61,46) scale(1 1)" width="299" height="529" clip-path="none"></g><g class="highcharts-series highcharts-series-5 highcharts-line-series highcharts-color-undefined " transform="translate(61,46) scale(1 1)" width="299" height="529" clip-path="url(#highcharts-ql9vczr-138)"><path fill="none" d="M 5.1862745098039 51.40630473540847 L 13.289828431373 51.046432325659794 L 21.393382352941 51.33372464321579 L 29.49693627451 51.75523795263021 L 37.600490196078 51.63763640776298 L 45.704044117647 25.102700042235767 L 53.807598039216 24.4435470482307 L 61.911151960784 23.82044869115748 L 70.014705882353 23.400629814373588 L 78.118259803922 23.41140876732908 L 86.22181372549 22.862224487713604 L 94.325367647059 22.89655462417778 L 102.42892156863 22.990470780311796 L 110.5324754902 22.90903864351111 L 118.63602941176 22.811866360616875 L 126.73958333333 22.741718463108953 L 134.8431372549 22.62753768474471 L 142.94669117647 22.559467768132095 L 151.05024509804 22.49531913750758 L 159.15379901961 22.450961377337023 L 167.25735294118 22.445796309595494 L 175.36090686275 22.441997128360924 L 183.46446078431 22.349907043315454 L 191.56801470588 22.347092767089634 L 199.67156862745 22.240658856975813 L 207.77512254902 22.4670220025734 L 215.87867647059 22.48323113359106 L 223.98223039216 22.510936812166676 L 232.08578431373 22.491239445352733 L 240.18933823529 22.444684899661922 L 248.29289215686 22.38472266534609 L 256.39644607843 22.345505038613112 L 264.5 22.29338830972108 L 272.60355392157 23.022708268642987 L 280.70710784314 22.479521789187174 L 288.81066176471 22.342139274251394 L 296.91421568627 22.212702368636258 L 305.01776960784 22.062678894924204 L 313.12132352941 22.11170780360817 L 321.22487745098 22.11388222159104 L 329.32843137255 22.26489463380227 L 337.43198529412 22.06672045226111 L 345.53553921569 22.437761963486935 L 353.63909313725 22.152948775776224 L 361.74264705882 21.970472205339377 L 369.84620098039 21.90775913060071 L 377.94975490196 21.893612946559756 L 386.05330882353 21.887815354194174 L 394.1568627451 21.924614720118257 L 402.26041666667 21.901115238622197 L 410.36397058824 22.188697600802925 L 418.4675245098 21.99138658619802 L 426.57107843137 22.013546582214758 L 434.67463235294 22.040925548071527 L 442.77818627451 22.07893166097398 L 450.88174019608 22.084118362891047 L 458.98529411765 22.160877151092677 L 467.08884803922 22.203400406513083 L 475.19240196078 22.23931423796347 L 483.29595588235 22.284827409780576 L 491.39950980392 22.38514764855728 L 499.50306372549 22.4346033738571 L 507.60661764706 22.52408929085624 L 515.71017156863 22.78820003929252 L 523.8137254902 25.867968300616553" class="highcharts-graph" stroke="#5cb85c" stroke-width="2" stroke-linejoin="round" stroke-linecap="round"></path></g><g class="highcharts-markers highcharts-series-5 highcharts-line-series highcharts-color-undefined " transform="translate(61,46) scale(1 1)" width="299" height="529" clip-path="none"></g></g><text x="330" text-anchor="middle" class="highcharts-title" style="color:#333333;font-size:18px;fill:#333333;width:536px;" y="24"><tspan>FastQC: Mean Quality Scores</tspan></text><g class="highcharts-axis-labels highcharts-xaxis-labels "><text x="139.11825980392157" style="color:#666666;cursor:default;font-size:11px;fill:#666666;width:96px;text-overflow:clip;" text-anchor="middle" transform="translate(0,0)" y="364" opacity="1"><tspan>10</tspan></text><text x="220.15379901960785" style="color:#666666;cursor:default;font-size:11px;fill:#666666;width:96px;text-overflow:clip;" text-anchor="middle" transform="translate(0,0)" y="364" opacity="1"><tspan>20</tspan></text><text x="301.18933823529414" style="color:#666666;cursor:default;font-size:11px;fill:#666666;width:96px;text-overflow:clip;" text-anchor="middle" transform="translate(0,0)" y="364" opacity="1"><tspan>30</tspan></text><text x="382.2248774509804" style="color:#666666;cursor:default;font-size:11px;fill:#666666;width:96px;text-overflow:clip;" text-anchor="middle" transform="translate(0,0)" y="364" opacity="1"><tspan>40</tspan></text><text x="463.2604166666667" style="color:#666666;cursor:default;font-size:11px;fill:#666666;width:96px;text-overflow:clip;" text-anchor="middle" transform="translate(0,0)" y="364" opacity="1"><tspan>50</tspan></text><text x="544.2959558823529" style="color:#666666;cursor:default;font-size:11px;fill:#666666;width:96px;text-overflow:clip;" text-anchor="middle" transform="translate(0,0)" y="364" opacity="1"><tspan>60</tspan></text></g><g class="highcharts-axis-labels highcharts-yaxis-labels "><text x="46" style="color:#666666;cursor:default;font-size:11px;fill:#666666;width:188px;text-overflow:clip;" text-anchor="end" transform="translate(0,0)" y="350" opacity="1"><tspan>0</tspan></text><text x="46" style="color:#666666;cursor:default;font-size:11px;fill:#666666;width:188px;text-overflow:clip;" text-anchor="end" transform="translate(0,0)" y="275" opacity="1"><tspan>10</tspan></text><text x="46" style="color:#666666;cursor:default;font-size:11px;fill:#666666;width:188px;text-overflow:clip;" text-anchor="end" transform="translate(0,0)" y="200" opacity="1"><tspan>20</tspan></text><text x="46" style="color:#666666;cursor:default;font-size:11px;fill:#666666;width:188px;text-overflow:clip;" text-anchor="end" transform="translate(0,0)" y="125" opacity="1"><tspan>30</tspan></text><text x="46" style="color:#666666;cursor:default;font-size:11px;fill:#666666;width:188px;text-overflow:clip;" text-anchor="end" transform="translate(0,0)" y="51" opacity="1"><tspan>40</tspan></text></g><text x="590" class="highcharts-credits" text-anchor="end" style="cursor:pointer;color:#999999;font-size:9px;fill:#999999;" y="395"><tspan>Created with MultiQC</tspan></text></svg>