<svg xmlns:xlink="http://www.w3.org/1999/xlink" version="1.1" class="highcharts-root" style="font-family:&quot;lucida grande&quot;, &quot;lucida sans unicode&quot;, arial, helvetica, sans-serif;font-size:12px;" xmlns="http://www.w3.org/2000/svg" width="600" height="400"><desc>Created with Highcharts 5.0.6</desc><defs><clipPath id="highcharts-ql9vczr-189"><rect x="0" y="0" width="487" height="207" fill="none"></rect></clipPath></defs><rect fill="#ffffff" class="highcharts-background" x="0" y="0" width="600" height="400" rx="0" ry="0"></rect><rect fill="none" class="highcharts-plot-background" x="10" y="60" width="487" height="207"></rect><text x="0" style="color:#666666;cursor:default;font-size:11px;fill:#666666;">0</text><text x="0" style="color:#666666;cursor:default;font-size:11px;fill:#666666;">0.25</text><text x="0" style="color:#666666;cursor:default;font-size:11px;fill:#666666;">0.5</text><text x="0" style="color:#666666;cursor:default;font-size:11px;fill:#666666;">0.75</text><text x="0" style="color:#666666;cursor:default;font-size:11px;fill:#666666;">1</text><g class="highcharts-grid highcharts-xaxis-grid "><path fill="none" class="highcharts-grid-line" d="M 53.5 60 L 53.5 267" opacity="1"></path><path fill="none" class="highcharts-grid-line" d="M 98.5 60 L 98.5 267" opacity="1"></path><path fill="none" class="highcharts-grid-line" d="M 142.5 60 L 142.5 267" opacity="1"></path><path fill="none" class="highcharts-grid-line" d="M 186.5 60 L 186.5 267" opacity="1"></path><path fill="none" class="highcharts-grid-line" d="M 230.5 60 L 230.5 267" opacity="1"></path><path fill="none" class="highcharts-grid-line" d="M 275.5 60 L 275.5 267" opacity="1"></path><path fill="none" class="highcharts-grid-line" d="M 319.5 60 L 319.5 267" opacity="1"></path><path fill="none" class="highcharts-grid-line" d="M 363.5 60 L 363.5 267" opacity="1"></path><path fill="none" class="highcharts-grid-line" d="M 407.5 60 L 407.5 267" opacity="1"></path><path fill="none" class="highcharts-grid-line" d="M 452.5 60 L 452.5 267" opacity="1"></path><path fill="none" class="highcharts-grid-line" d="M 496.5 60 L 496.5 267" opacity="1"></path><path fill="none" class="highcharts-grid-line" d="M 9.5 60 L 9.5 267" opacity="1"></path></g><g class="highcharts-grid highcharts-yaxis-grid "><path fill="none" stroke="#e6e6e6" stroke-width="1" class="highcharts-grid-line" d="M 10 95.5 L 497 95.5" opacity="1"></path><path fill="none" stroke="#e6e6e6" stroke-width="1" class="highcharts-grid-line" d="M 10 129.5 L 497 129.5" opacity="1"></path><path fill="none" stroke="#e6e6e6" stroke-width="1" class="highcharts-grid-line" d="M 10 164.5 L 497 164.5" opacity="1"></path><path fill="none" stroke="#e6e6e6" stroke-width="1" class="highcharts-grid-line" d="M 10 198.5 L 497 198.5" opacity="1"></path><path fill="none" stroke="#e6e6e6" stroke-width="1" class="highcharts-grid-line" d="M 10 233.5 L 497 233.5" opacity="1"></path><path fill="none" stroke="#e6e6e6" stroke-width="1" class="highcharts-grid-line" d="M 10 267.5 L 497 267.5" opacity="1"></path><path fill="none" stroke="#e6e6e6" stroke-width="1" class="highcharts-grid-line" d="M 10 59.5 L 497 59.5" opacity="1"></path></g><rect fill="none" class="highcharts-plot-border" x="10" y="60" width="487" height="207"></rect><path fill="none" stroke="#e6e6e6" stroke-width="1" class="highcharts-grid-line" d="M 0 0" opacity="1"></path><path fill="none" stroke="#e6e6e6" stroke-width="1" class="highcharts-grid-line" d="M 0 0" opacity="1"></path><path fill="none" stroke="#e6e6e6" stroke-width="1" class="highcharts-grid-line" d="M 0 0" opacity="1"></path><path fill="none" stroke="#e6e6e6" stroke-width="1" class="highcharts-grid-line" d="M 0 0" opacity="1"></path><path fill="none" stroke="#e6e6e6" stroke-width="1" class="highcharts-grid-line" d="M 0 0" opacity="1"></path><g class="highcharts-axis highcharts-xaxis "><path fill="none" class="highcharts-tick" stroke="#ccd6eb" stroke-width="1" d="M 53.5 267 L 53.5 277" opacity="1"></path><path fill="none" class="highcharts-tick" stroke="#ccd6eb" stroke-width="1" d="M 98.5 267 L 98.5 277" opacity="1"></path><path fill="none" class="highcharts-tick" stroke="#ccd6eb" stroke-width="1" d="M 142.5 267 L 142.5 277" opacity="1"></path><path fill="none" class="highcharts-tick" stroke="#ccd6eb" stroke-width="1" d="M 186.5 267 L 186.5 277" opacity="1"></path><path fill="none" class="highcharts-tick" stroke="#ccd6eb" stroke-width="1" d="M 230.5 267 L 230.5 277" opacity="1"></path><path fill="none" class="highcharts-tick" stroke="#ccd6eb" stroke-width="1" d="M 275.5 267 L 275.5 277" opacity="1"></path><path fill="none" class="highcharts-tick" stroke="#ccd6eb" stroke-width="1" d="M 319.5 267 L 319.5 277" opacity="1"></path><path fill="none" class="highcharts-tick" stroke="#ccd6eb" stroke-width="1" d="M 363.5 267 L 363.5 277" opacity="1"></path><path fill="none" class="highcharts-tick" stroke="#ccd6eb" stroke-width="1" d="M 407.5 267 L 407.5 277" opacity="1"></path><path fill="none" class="highcharts-tick" stroke="#ccd6eb" stroke-width="1" d="M 452.5 267 L 452.5 277" opacity="1"></path><path fill="none" class="highcharts-tick" stroke="#ccd6eb" stroke-width="1" d="M 497.5 267 L 497.5 277" opacity="1"></path><path fill="none" class="highcharts-tick" stroke="#ccd6eb" stroke-width="1" d="M 9.5 267 L 9.5 277" opacity="1"></path><text x="253.5" text-anchor="middle" transform="translate(0,0)" class="highcharts-axis-title" style="color:#666666;fill:#666666;" y="382.8867912488578"><tspan>Section Name</tspan></text><path fill="none" class="highcharts-axis-line" stroke="#ccd6eb" stroke-width="1" d="M 10 267.5 L 497 267.5"></path></g><g class="highcharts-axis highcharts-yaxis "><path fill="none" class="highcharts-axis-line" d="M 497 60 L 497 267"></path></g><g class="highcharts-series-group"><g class="highcharts-series highcharts-series-0 highcharts-heatmap-series highcharts-color-0 " transform="translate(10,60) scale(1 1)" width="207" height="487" clip-path="url(#highcharts-ql9vczr-189)"><rect x="0" y="0" width="44" height="35" fill="rgb(92,184,92)" class="highcharts-point highcharts-color-0"></rect><rect x="44" y="0" width="45" height="35" fill="rgb(92,184,92)" class="highcharts-point highcharts-color-0"></rect><rect x="89" y="0" width="44" height="35" fill="rgb(254,227,145)" class="highcharts-point highcharts-color-0"></rect><rect x="133" y="0" width="44" height="35" fill="rgb(92,184,92)" class="highcharts-point highcharts-color-0"></rect><rect x="177" y="0" width="44" height="35" fill="rgb(217,83,79)" class="highcharts-point highcharts-color-0"></rect><rect x="221" y="0" width="45" height="35" fill="rgb(92,184,92)" class="highcharts-point highcharts-color-0"></rect><rect x="266" y="0" width="44" height="35" fill="rgb(92,184,92)" class="highcharts-point highcharts-color-0"></rect><rect x="310" y="0" width="44" height="35" fill="rgb(92,184,92)" class="highcharts-point highcharts-color-0"></rect><rect x="354" y="0" width="44" height="35" fill="rgb(217,83,79)" class="highcharts-point highcharts-color-0"></rect><rect x="398" y="0" width="45" height="35" fill="rgb(92,184,92)" class="highcharts-point highcharts-color-0"></rect><rect x="443" y="0" width="44" height="35" fill="rgb(92,184,92)" class="highcharts-point highcharts-color-0"></rect><rect x="0" y="35" width="44" height="34" fill="rgb(92,184,92)" class="highcharts-point highcharts-color-0"></rect><rect x="44" y="35" width="45" height="34" fill="rgb(92,184,92)" class="highcharts-point highcharts-color-0"></rect><rect x="89" y="35" width="44" height="34" fill="rgb(254,227,145)" class="highcharts-point highcharts-color-0"></rect><rect x="133" y="35" width="44" height="34" fill="rgb(92,184,92)" class="highcharts-point highcharts-color-0"></rect><rect x="177" y="35" width="44" height="34" fill="rgb(217,83,79)" class="highcharts-point highcharts-color-0"></rect><rect x="221" y="35" width="45" height="34" fill="rgb(92,184,92)" class="highcharts-point highcharts-color-0"></rect><rect x="266" y="35" width="44" height="34" fill="rgb(92,184,92)" class="highcharts-point highcharts-color-0"></rect><rect x="310" y="35" width="44" height="34" fill="rgb(92,184,92)" class="highcharts-point highcharts-color-0"></rect><rect x="354" y="35" width="44" height="34" fill="rgb(217,83,79)" class="highcharts-point highcharts-color-0"></rect><rect x="398" y="35" width="45" height="34" fill="rgb(92,184,92)" class="highcharts-point highcharts-color-0"></rect><rect x="443" y="35" width="44" height="34" fill="rgb(92,184,92)" class="highcharts-point highcharts-color-0"></rect><rect x="0" y="69" width="44" height="35" fill="rgb(92,184,92)" class="highcharts-point highcharts-color-0"></rect><rect x="44" y="69" width="45" height="35" fill="rgb(92,184,92)" class="highcharts-point highcharts-color-0"></rect><rect x="89" y="69" width="44" height="35" fill="rgb(254,227,145)" class="highcharts-point highcharts-color-0"></rect><rect x="133" y="69" width="44" height="35" fill="rgb(92,184,92)" class="highcharts-point highcharts-color-0"></rect><rect x="177" y="69" width="44" height="35" fill="rgb(217,83,79)" class="highcharts-point highcharts-color-0"></rect><rect x="221" y="69" width="45" height="35" fill="rgb(92,184,92)" class="highcharts-point highcharts-color-0"></rect><rect x="266" y="69" width="44" height="35" fill="rgb(92,184,92)" class="highcharts-point highcharts-color-0"></rect><rect x="310" y="69" width="44" height="35" fill="rgb(92,184,92)" class="highcharts-point highcharts-color-0"></rect><rect x="354" y="69" width="44" height="35" fill="rgb(217,83,79)" class="highcharts-point highcharts-color-0"></rect><rect x="398" y="69" width="45" height="35" fill="rgb(92,184,92)" class="highcharts-point highcharts-color-0"></rect><rect x="443" y="69" width="44" height="35" fill="rgb(92,184,92)" class="highcharts-point highcharts-color-0"></rect><rect x="0" y="104" width="44" height="34" fill="rgb(92,184,92)" class="highcharts-point highcharts-color-0"></rect><rect x="44" y="104" width="45" height="34" fill="rgb(92,184,92)" class="highcharts-point highcharts-color-0"></rect><rect x="89" y="104" width="44" height="34" fill="rgb(254,227,145)" class="highcharts-point highcharts-color-0"></rect><rect x="133" y="104" width="44" height="34" fill="rgb(92,184,92)" class="highcharts-point highcharts-color-0"></rect><rect x="177" y="104" width="44" height="34" fill="rgb(217,83,79)" class="highcharts-point highcharts-color-0"></rect><rect x="221" y="104" width="45" height="34" fill="rgb(254,227,145)" class="highcharts-point highcharts-color-0"></rect><rect x="266" y="104" width="44" height="34" fill="rgb(92,184,92)" class="highcharts-point highcharts-color-0"></rect><rect x="310" y="104" width="44" height="34" fill="rgb(92,184,92)" class="highcharts-point highcharts-color-0"></rect><rect x="354" y="104" width="44" height="34" fill="rgb(217,83,79)" class="highcharts-point highcharts-color-0"></rect><rect x="398" y="104" width="45" height="34" fill="rgb(92,184,92)" class="highcharts-point highcharts-color-0"></rect><rect x="443" y="104" width="44" height="34" fill="rgb(92,184,92)" class="highcharts-point highcharts-color-0"></rect><rect x="0" y="138" width="44" height="35" fill="rgb(92,184,92)" class="highcharts-point highcharts-color-0"></rect><rect x="44" y="138" width="45" height="35" fill="rgb(92,184,92)" class="highcharts-point highcharts-color-0"></rect><rect x="89" y="138" width="44" height="35" fill="rgb(254,227,145)" class="highcharts-point highcharts-color-0"></rect><rect x="133" y="138" width="44" height="35" fill="rgb(92,184,92)" class="highcharts-point highcharts-color-0"></rect><rect x="177" y="138" width="44" height="35" fill="rgb(217,83,79)" class="highcharts-point highcharts-color-0"></rect><rect x="221" y="138" width="45" height="35" fill="rgb(254,227,145)" class="highcharts-point highcharts-color-0"></rect><rect x="266" y="138" width="44" height="35" fill="rgb(92,184,92)" class="highcharts-point highcharts-color-0"></rect><rect x="310" y="138" width="44" height="35" fill="rgb(92,184,92)" class="highcharts-point highcharts-color-0"></rect><rect x="354" y="138" width="44" height="35" fill="rgb(217,83,79)" class="highcharts-point highcharts-color-0"></rect><rect x="398" y="138" width="45" height="35" fill="rgb(92,184,92)" class="highcharts-point highcharts-color-0"></rect><rect x="443" y="138" width="44" height="35" fill="rgb(92,184,92)" class="highcharts-point highcharts-color-0"></rect><rect x="0" y="173" width="44" height="34" fill="rgb(92,184,92)" class="highcharts-point highcharts-color-0"></rect><rect x="44" y="173" width="45" height="34" fill="rgb(92,184,92)" class="highcharts-point highcharts-color-0"></rect><rect x="89" y="173" width="44" height="34" fill="rgb(254,227,145)" class="highcharts-point highcharts-color-0"></rect><rect x="133" y="173" width="44" height="34" fill="rgb(92,184,92)" class="highcharts-point highcharts-color-0"></rect><rect x="177" y="173" width="44" height="34" fill="rgb(217,83,79)" class="highcharts-point highcharts-color-0"></rect><rect x="221" y="173" width="45" height="34" fill="rgb(254,227,145)" class="highcharts-point highcharts-color-0"></rect><rect x="266" y="173" width="44" height="34" fill="rgb(92,184,92)" class="highcharts-point highcharts-color-0"></rect><rect x="310" y="173" width="44" height="34" fill="rgb(92,184,92)" class="highcharts-point highcharts-color-0"></rect><rect x="354" y="173" width="44" height="34" fill="rgb(217,83,79)" class="highcharts-point highcharts-color-0"></rect><rect x="398" y="173" width="45" height="34" fill="rgb(92,184,92)" class="highcharts-point highcharts-color-0"></rect><rect x="443" y="173" width="44" height="34" fill="rgb(92,184,92)" class="highcharts-point highcharts-color-0"></rect></g><g class="highcharts-markers highcharts-series-0 highcharts-heatmap-series highcharts-color-0 " transform="translate(10,60) scale(1 1)" width="207" height="487" clip-path="none"></g></g><text x="300" text-anchor="middle" class="highcharts-title" style="color:#333333;font-size:18px;fill:#333333;width:536px;" y="24"><tspan>FastQC: Status Checks</tspan></text><g class="highcharts-axis-labels highcharts-xaxis-labels "><text x="34.72908850071431" style="color:#666666;cursor:default;font-size:11px;fill:#666666;width:39;text-overflow:ellipsis;" text-anchor="end" transform="translate(0,0) rotate(-45 34.72908850071431 283)" y="283" opacity="1"><tspan>Basic…</tspan><title>Basic Statistics</title></text><text x="79.00181577344158" style="color:#666666;cursor:default;font-size:11px;fill:#666666;width:102;text-overflow:ellipsis;" text-anchor="end" transform="translate(0,0) rotate(-45 79.00181577344158 283)" y="283" opacity="1"><tspan>Per Base Sequen…</tspan><title>Per Base Sequence Qu</title></text><text x="123.27454304616886" style="color:#666666;cursor:default;font-size:11px;fill:#666666;width:400px;text-overflow:ellipsis;" text-anchor="end" transform="translate(0,0) rotate(-45 123.27454304616886 283)" y="283" opacity="1"><tspan>Per Tile Sequence Qu</tspan></text><text x="167.54727031889615" style="color:#666666;cursor:default;font-size:11px;fill:#666666;width:400px;text-overflow:ellipsis;" text-anchor="end" transform="translate(0,0) rotate(-45 167.54727031889615 283)" y="283" opacity="1"><tspan>Per Sequence Quality</tspan></text><text x="211.8199975916234" style="color:#666666;cursor:default;font-size:11px;fill:#666666;width:400px;text-overflow:ellipsis;" text-anchor="end" transform="translate(0,0) rotate(-45 211.8199975916234 283)" y="283" opacity="1"><tspan>Per Base Sequence Co</tspan></text><text x="256.09272486435066" style="color:#666666;cursor:default;font-size:11px;fill:#666666;width:400px;text-overflow:ellipsis;" text-anchor="end" transform="translate(0,0) rotate(-45 256.09272486435066 283)" y="283" opacity="1"><tspan>Per Sequence GC Cont</tspan></text><text x="300.3654521370779" style="color:#666666;cursor:default;font-size:11px;fill:#666666;width:400px;text-overflow:ellipsis;" text-anchor="end" transform="translate(0,0) rotate(-45 300.3654521370779 283)" y="283" opacity="1"><tspan>Per Base N Content</tspan></text><text x="344.6381794098052" style="color:#666666;cursor:default;font-size:11px;fill:#666666;width:400px;text-overflow:ellipsis;" text-anchor="end" transform="translate(0,0) rotate(-45 344.6381794098052 283)" y="283" opacity="1"><tspan>Sequence Length Dist</tspan></text><text x="388.91090668253247" style="color:#666666;cursor:default;font-size:11px;fill:#666666;width:400px;text-overflow:ellipsis;" text-anchor="end" transform="translate(0,0) rotate(-45 388.91090668253247 283)" y="283" opacity="1"><tspan>Sequence Duplication</tspan></text><text x="433.1836339552598" style="color:#666666;cursor:default;font-size:11px;fill:#666666;width:400px;text-overflow:ellipsis;" text-anchor="end" transform="translate(0,0) rotate(-45 433.1836339552598 283)" y="283" opacity="1"><tspan>Overrepresented Sequ</tspan></text><text x="477.45636122798703" style="color:#666666;cursor:default;font-size:11px;fill:#666666;width:400px;text-overflow:ellipsis;" text-anchor="end" transform="translate(0,0) rotate(-45 477.45636122798703 283)" y="283" opacity="1"><tspan>Adapter Content</tspan></text></g><g class="highcharts-axis-labels highcharts-yaxis-labels "><text x="512" style="color:#666666;cursor:default;font-size:11px;fill:#666666;width:188px;text-overflow:clip;" text-anchor="start" transform="translate(0,0)" y="82" opacity="1"><tspan>SRR3414629_1</tspan></text><text x="512" style="color:#666666;cursor:default;font-size:11px;fill:#666666;width:188px;text-overflow:clip;" text-anchor="start" transform="translate(0,0)" y="116" opacity="1"><tspan>SRR3414630_1</tspan></text><text x="512" style="color:#666666;cursor:default;font-size:11px;fill:#666666;width:188px;text-overflow:clip;" text-anchor="start" transform="translate(0,0)" y="151" opacity="1"><tspan>SRR3414631_1</tspan></text><text x="512" style="color:#666666;cursor:default;font-size:11px;fill:#666666;width:188px;text-overflow:clip;" text-anchor="start" transform="translate(0,0)" y="185" opacity="1"><tspan>SRR3414635_1</tspan></text><text x="512" style="color:#666666;cursor:default;font-size:11px;fill:#666666;width:188px;text-overflow:clip;" text-anchor="start" transform="translate(0,0)" y="220" opacity="1"><tspan>SRR3414636_1</tspan></text><text x="512" style="color:#666666;cursor:default;font-size:11px;fill:#666666;width:188px;text-overflow:clip;" text-anchor="start" transform="translate(0,0)" y="254" opacity="1"><tspan>SRR3414637_1</tspan></text></g><text x="590" class="highcharts-credits" text-anchor="end" style="cursor:pointer;color:#999999;font-size:9px;fill:#999999;" y="395"><tspan>Created with MultiQC</tspan></text></svg>